<svg xmlns="http://www.w3.org/2000/svg" width="37.799" height="38.562" viewBox="0 0 37.799 38.562">
  <g id="Google__G__Logo" transform="translate(0.05 0.018)">
    <path id="Path_83" data-name="Path 83" d="M290.619,227.018a22.677,22.677,0,0,0-.333-3.918H272.1v7.424h10.414a8.924,8.924,0,0,1-3.854,5.859V241.2h6.213C288.522,237.843,290.619,232.884,290.619,227.018Z" transform="translate(-252.87 -207.312)" fill="#4285f4"/>
    <path id="Path_84" data-name="Path 84" d="M46.129,339.886a18.456,18.456,0,0,0,12.78-4.654L52.7,330.414A11.694,11.694,0,0,1,35.311,324.3H28.9v4.966A19.283,19.283,0,0,0,46.129,339.886Z" transform="translate(-26.899 -301.342)" fill="#34a853"/>
    <path id="Path_85" data-name="Path 85" d="M8.405,162.348a11.549,11.549,0,0,1,0-7.382V150H2a19.3,19.3,0,0,0,0,17.314Z" transform="translate(0 -139.39)" fill="#fbbc04"/>
    <path id="Path_86" data-name="Path 86" d="M46.129,7.613a10.477,10.477,0,0,1,7.4,2.89L59.03,5a18.53,18.53,0,0,0-12.9-5.016A19.277,19.277,0,0,0,28.9,10.61l6.4,4.966A11.532,11.532,0,0,1,46.129,7.613Z" transform="translate(-26.899)" fill="#ea4335"/>
  </g>
</svg>
