<svg xmlns="http://www.w3.org/2000/svg" xmlns:xlink="http://www.w3.org/1999/xlink" width="812" height="530.407" viewBox="0 0 812 530.407">
  <defs>
    <linearGradient id="linear-gradient" x1="-0.03" y1="0.503" x2="0.97" y2="0.503" gradientUnits="objectBoundingBox">
      <stop offset="0" stop-color="gray" stop-opacity="0.251"/>
      <stop offset="0.54" stop-color="gray" stop-opacity="0.122"/>
      <stop offset="1" stop-color="gray" stop-opacity="0.102"/>
    </linearGradient>
    <linearGradient id="linear-gradient-2" x1="0.5" x2="0.5" y2="1" gradientUnits="objectBoundingBox">
      <stop offset="0" stop-color="#f9a826"/>
      <stop offset="1" stop-color="#7d5413"/>
    </linearGradient>
  </defs>
  <g id="undraw_pair_programming_njlp" transform="translate(-0.038 0.024)">
    <path id="Path_1" data-name="Path 1" d="M454.948,176.311c-51.283,8.666-102.494,4.951-151.758-.453s-98.405-12.46-149.71-10.333c-33,1.365-69.757,7.9-92.8,26.91C38.5,210.715,35.042,235.383,35,257.65c-.057,16.749,1.394,34.081,13.264,47.424,8.249,9.255,20.946,15.887,30.51,24.431,33.276,29.676,23.159,76.4,1.322,116.132-10.247,18.639-22.778,36.969-29.755,56.047s-7.9,39.52,4.584,55.077c12.373,15.427,36.308,24.122,61.264,28.627,50.686,9.154,107.157,3.471,161.8-4.232,120.925-17.109,240.6-43.781,360.015-70.389,44.184-9.851,88.561-19.746,131.128-33.944,23.64-7.9,47.712-17.741,62.981-33.053,19.4-19.4,19.889-45.937,1.193-61.8-31.372-26.586-102.379-20.687-126.644-51.082-13.351-16.735-7.538-39.463,3.09-59.539,22.785-43.055,66.825-85.594,61.12-128.52-3.938-29.461-33.98-53.841-74.248-60.193C654.411,75.987,600.2,88.6,575.9,118.252,550.918,148.8,500.231,168.637,454.948,176.311Z" transform="translate(-34.96 -80.93)" fill="#f9a826" opacity="0.1"/>
    <rect id="Rectangle_1" data-name="Rectangle 1" width="203.658" height="47.158" transform="translate(258.688 258.125)" fill="#565661"/>
    <rect id="Rectangle_2" data-name="Rectangle 2" width="203.658" height="47.158" transform="translate(258.688 258.125)" opacity="0.1"/>
    <path id="Path_2" data-name="Path 2" d="M386.2,427.03l1.43,125.9-19.588,49.451L366.53,427.03Z" transform="translate(-103.149 -120.195)" fill="#bcbec9"/>
    <path id="Path_3" data-name="Path 3" d="M362.99,371.84l198.284,1.193v35.123H362.99Z" transform="translate(-102.153 -104.661)" fill="#565661"/>
    <path id="Path_4" data-name="Path 4" d="M615.33,427.03l16.965,2.393V600.466L615.33,548.149Z" transform="translate(-173.174 -120.195)" fill="#bcbec9"/>
    <rect id="Rectangle_3" data-name="Rectangle 3" width="95.56" height="203.062" transform="translate(465.566 260.015)" fill="#efeff0"/>
    <rect id="Rectangle_4" data-name="Rectangle 4" width="80.269" height="156.09" transform="translate(473.211 265.655)" fill="#565661"/>
    <rect id="Rectangle_5" data-name="Rectangle 5" width="80.269" height="156.09" transform="translate(473.211 265.655)" opacity="0.1"/>
    <rect id="Rectangle_6" data-name="Rectangle 6" width="80.269" height="34.641" transform="translate(473.211 268.853)" fill="#565661"/>
    <rect id="Rectangle_7" data-name="Rectangle 7" width="80.269" height="73.579" transform="translate(473.211 306.835)" fill="#565661"/>
    <rect id="Rectangle_8" data-name="Rectangle 8" width="80.269" height="73.579" transform="translate(473.211 384.956)" fill="#565661"/>
    <rect id="Rectangle_9" data-name="Rectangle 9" width="80.269" height="73.579" transform="translate(473.211 384.956)" opacity="0.1"/>
    <ellipse id="Ellipse_1" data-name="Ellipse 1" cx="5.174" cy="6.611" rx="5.174" ry="6.611" transform="translate(471.386 463.077)" fill="#565661"/>
    <ellipse id="Ellipse_2" data-name="Ellipse 2" cx="5.174" cy="6.611" rx="5.174" ry="6.611" transform="translate(543.133 463.393)" fill="#565661"/>
    <path id="Path_5" data-name="Path 5" d="M356.847,584.728h6.927l-1.9-220.408H351.35Z" transform="translate(-98.877 -102.545)" fill="#efeff0"/>
    <path id="Path_6" data-name="Path 6" d="M638.94,361.87V582.127h6.445V363.63Z" transform="translate(-179.819 -101.855)" fill="#efeff0"/>
    <path id="Path_7" data-name="Path 7" d="M366.46,419.38v7.89H562.25v-5.734Z" transform="translate(-103.13 -118.042)" fill="#efeff0"/>
    <path id="Path_8" data-name="Path 8" d="M375.012,341.26H623.227L659.3,353.2v6.927L349.69,357.744v-7.049Z" transform="translate(-98.41 -96.055)" fill="#fff"/>
    <path id="Path_9" data-name="Path 9" d="M349.69,354.39,659.3,356.9v6.927L349.69,361.439Z" transform="translate(-98.41 -99.75)" fill="#bcbec9"/>
    <path id="Path_10" data-name="Path 10" d="M423.061,549.091l-1.437-.216v-.18c-.043-.338-.093-.668-.144-1.006.589.467,1.15.934,1.667,1.4Z" transform="translate(-143.736 -212.307)" fill="url(#linear-gradient)"/>
    <path id="Path_11" data-name="Path 11" d="M376.211,703.538c.934-.216,1.883-.4,2.831-.525a34.074,34.074,0,0,1,19.128,2.817c-.6,4.441-1.2,9.032.079,13.322.891,3.018,2.68,5.748,3.061,8.9a5.245,5.245,0,0,1,4.132,3.65,7.94,7.94,0,0,1,.41,2.558,13.65,13.65,0,0,1-.4,3.19A3.219,3.219,0,0,1,402,740.32c-5.562.632-11.015-1.559-16.189-3.708l-10.06-4.182c-1.178-.489-2.364-.984-3.492-1.588a19.134,19.134,0,0,1-5.6-4.577,2.55,2.55,0,0,1-.668-1.207c-.187-1.265,1.293-2.019,2.235-2.874a4.476,4.476,0,0,0,.719-.877c1.114-1.681,1.222-4,1.89-5.985,1.581-4.707,6.467-7.739,8.191-12.33.093-.251.18-.5.251-.762" transform="translate(-128.114 -255.802)" fill="#a26565"/>
    <path id="Path_12" data-name="Path 12" d="M405.852,741.728a13.65,13.65,0,0,1-.4,3.19A3.219,3.219,0,0,1,402,747.793c-5.562.632-11.015-1.559-16.189-3.708l-10.06-4.182c-1.178-.489-2.364-.984-3.492-1.588a19.133,19.133,0,0,1-5.6-4.577,2.55,2.55,0,0,1-.668-1.207c-.187-1.265,1.293-2.019,2.235-2.874a4.475,4.475,0,0,0,.719-.877c2.774.6,6.215,2.343,8.335,3.018a25.312,25.312,0,0,1,6.065,2.537c2.644,1.7,4.548,4.311,6.79,6.467s5.138,4.117,8.263,3.851a13.653,13.653,0,0,0,4.7-1.624Z" transform="translate(-128.114 -263.275)" opacity="0.1"/>
    <path id="Path_13" data-name="Path 13" d="M397.432,601.932a3.327,3.327,0,0,1-1.222,3.593c-.941.582-2.156.5-3.09,1.135-1.157.812-1.322,2.422-1.523,3.815-.719,4.793-3.1,9.14-5.13,13.545s-3.751,9.212-3,14c.51,3.248,2.105,6.711.611,9.636-.366.719-.913,1.358-1.329,2.055-2.048,3.42-.884,7.753-.963,11.734a2.321,2.321,0,0,1-.28,1.272,3.515,3.515,0,0,1-1.135.877,6.022,6.022,0,0,0-2.45,4.62,17.654,17.654,0,0,0,.647,5.36,3.19,3.19,0,0,0,.884,1.868,3.305,3.305,0,0,0,1.933.546,43,43,0,0,1,13.121,3.19c2.723,1.135,5.368,2.558,8.263,3.1a2.155,2.155,0,0,0,1.7-.18,2.335,2.335,0,0,0,.719-1.243c1.114-3.665,2.242-7.444,1.861-11.253-.165-1.638-.6-3.241-.719-4.879-.5-6.467,3.873-12.3,5.26-18.682.625-2.874.625-5.849,1.071-8.752,1.207-7.954,5.59-15.09,7.279-22.958a24.96,24.96,0,0,1,1.092-4.311c1.257-3.047,4.168-5.518,4.232-8.817a3.434,3.434,0,0,0-.546-2.055,4.656,4.656,0,0,0-2.565-1.437,87.582,87.582,0,0,0-11.892-2.4,22.528,22.528,0,0,0-5.59-.388,16.454,16.454,0,0,0-6.841,2.414C395.046,599.051,396.828,599.46,397.432,601.932Z" transform="translate(-131.472 -225.592)" fill="#454b69"/>
    <path id="Path_14" data-name="Path 14" d="M397.432,601.932a3.327,3.327,0,0,1-1.222,3.593c-.941.582-2.156.5-3.09,1.135-1.157.812-1.322,2.422-1.523,3.815-.719,4.793-3.1,9.14-5.13,13.545s-3.751,9.212-3,14c.51,3.248,2.105,6.711.611,9.636-.366.719-.913,1.358-1.329,2.055-2.048,3.42-.884,7.753-.963,11.734a2.321,2.321,0,0,1-.28,1.272,3.515,3.515,0,0,1-1.135.877,6.022,6.022,0,0,0-2.45,4.62,17.654,17.654,0,0,0,.647,5.36,3.19,3.19,0,0,0,.884,1.868,3.305,3.305,0,0,0,1.933.546,43,43,0,0,1,13.121,3.19c2.723,1.135,5.368,2.558,8.263,3.1a2.155,2.155,0,0,0,1.7-.18,2.335,2.335,0,0,0,.719-1.243c1.114-3.665,2.242-7.444,1.861-11.253-.165-1.638-.6-3.241-.719-4.879-.5-6.467,3.873-12.3,5.26-18.682.625-2.874.625-5.849,1.071-8.752,1.207-7.954,5.59-15.09,7.279-22.958a24.96,24.96,0,0,1,1.092-4.311c1.257-3.047,4.168-5.518,4.232-8.817a3.434,3.434,0,0,0-.546-2.055,4.656,4.656,0,0,0-2.565-1.437,87.582,87.582,0,0,0-11.892-2.4,22.528,22.528,0,0,0-5.59-.388,16.454,16.454,0,0,0-6.841,2.414C395.046,599.051,396.828,599.46,397.432,601.932Z" transform="translate(-131.472 -225.592)" opacity="0.05"/>
    <path id="Path_15" data-name="Path 15" d="M346.469,639.652H340.34l-4.01-82.374-.28-4.685,5.21-1.832.352,4.98Z" transform="translate(-94.571 -155.019)" fill="#565661"/>
    <path id="Path_16" data-name="Path 16" d="M341.612,555.74l-5.281,1.538-.28-4.685,5.21-1.832Z" transform="translate(-94.571 -155.019)" opacity="0.1"/>
    <path id="Path_17" data-name="Path 17" d="M387.732,648.484l-10.11,1.222L331.046,544l-12.56-.92-22.059,6.438-4.29,125.854h-10.11l3.981-130.453-24.208.618L218.6,653.075h-9.19l45.434-125.681,1.753-4.843,67.709-2.321,16.879,9.463.216.546Z" transform="translate(-58.928 -146.426)" fill="#565661"/>
    <path id="Path_18" data-name="Path 18" d="M394.156,611.169c-14.551,4.383-29.655,9.169-29.655,9.169s-13.775,4.807-19.609,0a8.815,8.815,0,0,0-2.436-1.344,12,12,0,0,0,2.436,1.344L307.6,608.317l1.746-4.836,67.716-2.321,16.879,9.463Z" transform="translate(-111.684 -227.356)" opacity="0.1"/>
    <path id="Path_19" data-name="Path 19" d="M332.207,583.659l27.571-6.129s65.877,12.258,70.777,17.159c0,0-52.7,10.721-58.519,14.371S331.589,616.748,332.207,583.659Z" transform="translate(-118.607 -220.705)" fill="#fff"/>
    <path id="Path_20" data-name="Path 20" d="M308.2,465.4c-2.156,6.833-8.041,12.991-15.2,13.286a2.652,2.652,0,0,1-1.516-.273c-.9-.56-.92-1.875-.553-2.874a12.434,12.434,0,0,0,1.107-2.946,1.927,1.927,0,0,0-.043-.64c-.187-.855-.884-1.617-1.7-1.437a2.874,2.874,0,0,0,.611-3.815,8.627,8.627,0,0,1-.877-1.178c-.6-1.221.331-2.594.719-3.9.8-2.874-1.229-5.748-1.394-8.745-.144-2.68,1.214-5.2,1.552-7.861.539-4.311-1.6-8.443-1.854-12.747a26.994,26.994,0,0,1,1.394-8.874,32.079,32.079,0,0,0,1.581-7.9c0-1.962-.338-3.9-.431-5.856a10.2,10.2,0,0,1,.941-5.2,4.16,4.16,0,0,1,2.364-2.019c2.357-.79,3.9.438,4.247,2.673.575,3.8.244,7.681,1,11.5A53.892,53.892,0,0,0,303.289,427c1.272,3.032,2.817,5.964,3.794,9.1a50.151,50.151,0,0,1,1.574,7.9C309.619,451.184,310.374,458.57,308.2,465.4Z" transform="translate(-106.453 -171.352)" fill="#f9a826"/>
    <path id="Path_21" data-name="Path 21" d="M528.431,724.635a11.145,11.145,0,0,1-7.854,4.627c-3.119.388-6.359-.4-9.384.46a2.874,2.874,0,0,0-2.156,1.66,17.639,17.639,0,0,0-.137,1.76c-.352,1.919-2.874,2.35-4.836,2.335l-8.091-.05c-1.681,0-3.542-.093-4.75-1.257a3.535,3.535,0,0,1-.072-4.656,2.924,2.924,0,0,1,.905-.718,2.874,2.874,0,0,1-1.94-2.307,8.579,8.579,0,0,1,.151-3.169c0-3,.719-8.033,2.831-10.383,2.594-2.924,7.092-6.7,11.008-7.487a8.622,8.622,0,0,1,7.459,2.12c1.854,1.725,3.2,4.426,5.748,4.728,1.387.172,2.723-.481,4.1-.719a7.624,7.624,0,0,1,7.768,4.1,8.09,8.09,0,0,1,.719,2.249A9.341,9.341,0,0,1,528.431,724.635Z" transform="translate(-163.031 -256.665)" fill="#a26565"/>
    <path id="Path_22" data-name="Path 22" d="M528.539,729.587a11.144,11.144,0,0,1-7.854,4.627c-3.119.388-6.359-.4-9.384.46a2.874,2.874,0,0,0-2.156,1.66,17.648,17.648,0,0,0-.137,1.76c-.352,1.919-2.874,2.35-4.836,2.335l-8.091-.05c-1.681,0-3.542-.093-4.75-1.257a3.535,3.535,0,0,1-.072-4.656c4.671-.194,9.262,0,13.918-.963,1.89-.381,3.751-.884,5.662-1.15,4.139-.589,8.544-.086,12.345-1.839a13.953,13.953,0,0,0,6.783-7.624,9.341,9.341,0,0,1-1.43,6.7Z" transform="translate(-163.139 -261.617)" opacity="0.1"/>
    <path id="Path_23" data-name="Path 23" d="M450.457,666.341a18,18,0,0,1-9.866,4.153c-3.621.187-7.466-1.437-9.241-4.584-2.594-4.62-.295-11.044-3.471-15.284-.992-1.329-2.422-2.271-3.471-3.557s-1.653-3.219-.719-4.584c-1.128.431-2.321-.661-2.651-1.825a33.356,33.356,0,0,1-.323-3.593c-.525-3.126-3.593-5.13-5.066-7.9s-1.272-6.374-1.437-9.657a36.646,36.646,0,0,0-8.479-21.808c-.977-1.164-2.227-2.35-3.751-2.292.266-2.63-1.487-5.145-3.758-6.467a18.629,18.629,0,0,0-7.6-2.026c-26.536-2.615-54.186,7.25-79.522-1.049-7.049-2.306-13.846-6.165-18.158-12.215a21.356,21.356,0,0,1-3.8-16.153v-.1c1-5.1,3.693-6.359,8.156-8.687a97.9,97.9,0,0,1,16.088-6.747c10.778-3.37,22.383-4.584,33.506-2.113,5.2,1.164,10.2,3.09,15.406,4.218,2.048.446,4.11.762,6.187,1.028,3.226.4,6.467.668,9.715,1.042A146.963,146.963,0,0,1,408.709,553a39.951,39.951,0,0,1,10.541,4.944,23.353,23.353,0,0,1,9.37,15.42c.3,2.113.309,4.311.769,6.359a32.329,32.329,0,0,0,1.725,5.03,334.581,334.581,0,0,1,15.01,46.706,11.345,11.345,0,0,0,1.2,3.377c.92,1.487,2.5,2.486,3.427,3.974,2.156,3.507.079,8.4,1.99,12.05.661,1.265,1.76,2.263,2.422,3.528C457.319,658.531,454.136,663.489,450.457,666.341Z" transform="translate(-106.405 -209.731)" fill="#454b69"/>
    <path id="Path_24" data-name="Path 24" d="M459.831,598.919a11.855,11.855,0,0,0,2.608-2.874,5.361,5.361,0,0,0,.79-3.715,10.627,10.627,0,0,1-2.8,9.14c-1.8,1.847-5.188,3.657-7.825,3.025C452.984,602.383,458.157,600.342,459.831,598.919Z" transform="translate(-152.497 -224.871)" opacity="0.1"/>
    <path id="Path_25" data-name="Path 25" d="M368.97,547.967a4.821,4.821,0,0,1-3.19,3.291,13.291,13.291,0,0,1-4.735.553h-1.437c-18.855-.417-37.911-4.6-56.327-.611a40.77,40.77,0,0,0-6.51,1.919,29.389,29.389,0,0,0-7.48,4.311v-.1c1-5.1,3.693-6.359,8.156-8.687a97.9,97.9,0,0,1,16.067-6.683c10.778-3.37,22.383-4.584,33.506-2.112,5.2,1.164,10.2,3.09,15.406,4.218,2.048.446,4.11.762,6.187,1.028A4.966,4.966,0,0,1,368.97,547.967Z" transform="translate(-106.531 -209.731)" opacity="0.1"/>
    <path id="Path_26" data-name="Path 26" d="M368.151,542.379a4.814,4.814,0,0,1-3.19,3.3,13.127,13.127,0,0,1-4.735.546h-1.437c-18.855-.417-37.911-4.6-56.327-.611a41.515,41.515,0,0,0-6.51,1.911,29.605,29.605,0,0,0-7.8,4.6q-.826-2.271-1.645-4.548c-.661-1.811,1.437-2.213,1.839-3.837a8.743,8.743,0,0,0-.417-3.521,6.146,6.146,0,0,1-.115-.87c-.129-2.594.8-4.089,2.924-5.49,6.309-4.168,14-7.027,21.2-9.176a52.452,52.452,0,0,1,11.784-2.285c5.662-.331,11.317.719,16.828,2.048a72.164,72.164,0,0,1,19.487,7.43c2.946,1.717,5.82,3.873,7.408,6.934a5.461,5.461,0,0,1,.7,3.571Z" transform="translate(-105.712 -205.17)" fill="#a26565"/>
    <path id="Path_27" data-name="Path 27" d="M308.857,465.424c-2.156,6.833-8.041,12.991-15.2,13.286a2.651,2.651,0,0,1-1.516-.273c-.9-.56-.92-1.875-.553-2.874a12.434,12.434,0,0,0,1.107-2.946,1.926,1.926,0,0,0-.043-.64c3.8-5.36,7.487-10.778,8.946-17.123a9.155,9.155,0,0,0,.266-3.356,29.865,29.865,0,0,0-1.207-3.715c-.632-2.213-.338-4.556-.158-6.848a63.233,63.233,0,0,0-4.915-29.525,27.7,27.7,0,0,1-2.414-6.905,4.16,4.16,0,0,1,2.364-2.019c2.357-.79,3.9.438,4.247,2.673.575,3.8.244,7.681,1,11.5a53.89,53.89,0,0,0,3.154,10.412c1.272,3.032,2.817,5.964,3.794,9.1a50.154,50.154,0,0,1,1.574,7.9C310.279,451.2,311.034,458.59,308.857,465.424Z" transform="translate(-107.113 -171.371)" opacity="0.1"/>
    <path id="Path_28" data-name="Path 28" d="M368.718,542.367a4.814,4.814,0,0,1-3.19,3.3,13.129,13.129,0,0,1-4.735.546h-1.437a31.306,31.306,0,0,0-20.838-5.03,33.672,33.672,0,0,1-7.027.611c-4.735-.431-8.572-3.837-12.79-6.014a26.859,26.859,0,0,0-29.77,4.038l-.41.359a6.139,6.139,0,0,1-.115-.869c-.129-2.594.8-4.089,2.924-5.49,6.309-4.168,14-7.027,21.2-9.176a52.448,52.448,0,0,1,11.784-2.285c5.662-.331,11.317.718,16.828,2.048a72.164,72.164,0,0,1,19.487,7.43c2.924,1.746,5.8,3.9,7.387,6.963a5.461,5.461,0,0,1,.7,3.571Z" transform="translate(-106.278 -205.159)" opacity="0.1"/>
    <path id="Path_29" data-name="Path 29" d="M382.326,418.229l-.1.259c-1.61,4.175-4.57,7.7-6.467,11.77-2.393,5.152-2.982,10.929-3.514,16.591a86.2,86.2,0,0,0-.546,14.594c.92,11.985,6.776,23.353,8.342,35.108a39.021,39.021,0,0,1,.295,8.2,8.094,8.094,0,0,1-1.6,4.872c-1.15,1.279-3.384,1.782-4.62.553.553-1.056,1.114-2.105,1.674-3.162-3.284-2.551-8.227-.719-12.064-2.314a19.425,19.425,0,0,1-4.455-3.169,31.243,31.243,0,0,0-23.274-6.8,33.2,33.2,0,0,1-7.027.618c-4.735-.438-8.572-3.837-12.79-6.014a26.874,26.874,0,0,0-29.769,4.031c-1.006.934-2.357,2.026-3.593,1.437a2.989,2.989,0,0,1-1.114-1.214c-4.706-8.041-1.243-18.409,3.787-26.241s11.691-15.054,13.76-24.129a9,9,0,0,0,.266-3.356,29.854,29.854,0,0,0-1.207-3.715c-.632-2.213-.338-4.556-.158-6.848a63.232,63.232,0,0,0-4.9-29.532c-1.15-2.68-2.515-5.4-2.515-8.306,0-4.584,3.284-8.385,6-12.072,3.126-4.239,5.748-8.932,9.708-12.417,3.751-3.312,9.183-5.339,13.825-3.657a86.184,86.184,0,0,1,24.115-2.35c2.8.129,5.7.424,8.155,1.782,2.63,1.437,4.52,4,7.106,5.526a38.726,38.726,0,0,0,6.122,2.45,25.3,25.3,0,0,1,13.193,11.8c2.874,5.569,3.593,11.971,4.225,18.208C383.792,406.6,384.367,412.7,382.326,418.229Z" transform="translate(-103.77 -159.73)" fill="url(#linear-gradient-2)"/>
    <path id="Path_30" data-name="Path 30" d="M401.684,469.454c.92,11.985,6.776,23.353,8.342,35.108-3.133-2.651-7.494-5.317-8.077-8.4-.647-3.334-2.716-7.7-3.061-11.073s2.019-7.487-.46-9.8c-1.207-1.128,2-.812.826-1.969-2.651-2.58-3.305-6.553-3.471-10.239-.28-6.524.546-13.121-.654-19.537-.719-3.959-2.22-7.732-3.42-11.576-1.394-4.477-2.4-9.061-3.406-13.652a95.65,95.65,0,0,1-2.156-12.4c-.309-3.593-.165-7.4,1.437-10.678s4.843-5.935,8.479-5.885c12.158.158,10.06,16.642,12.733,24.258,1.071,3.032,2.515,5.964,3.1,9.126a24.194,24.194,0,0,1,.345,3.751c-1.61,4.175-4.57,7.7-6.467,11.77-2.393,5.152-2.982,10.929-3.514,16.591A83.538,83.538,0,0,0,401.684,469.454Z" transform="translate(-133.755 -167.742)" opacity="0.1"/>
    <path id="Path_31" data-name="Path 31" d="M409.911,413.323c1.071,3.032,2.515,5.964,3.1,9.126.97,5.3-.532,10.922,1.1,16.052a27.966,27.966,0,0,1,1.063,3.356,29.32,29.32,0,0,1-.043,4.958,28.333,28.333,0,0,0,1.588,7.825,139.849,139.849,0,0,1,4.994,26.7,33.48,33.48,0,0,0,1.142,7.186,23.872,23.872,0,0,1,.776,2.429,12.56,12.56,0,0,1,.137,3.327,63.287,63.287,0,0,0-.194,10.563c.4,3.507,1.674,7.063,4.311,9.413-2.357.51-4.85,1.02-7.15.266-3.233-1.056-5.174-4.311-6.819-7.272-2.084-3.78-10-7.186-10.821-11.432-.639-3.327-2.709-7.7-3.054-11.073s2.012-7.48-.467-9.794c-1.2-1.128,2.012-.819.826-1.969-2.644-2.58-3.3-6.553-3.463-10.247-.28-6.517.539-13.114-.654-19.53-.719-3.959-2.22-7.732-3.42-11.583-1.394-4.469-2.4-9.054-3.406-13.652a94.664,94.664,0,0,1-2.156-12.4c-.309-3.593-.172-7.408,1.437-10.685s4.85-5.928,8.479-5.885C409.322,389.215,407.238,405.706,409.911,413.323Z" transform="translate(-134.078 -167.643)" fill="url(#linear-gradient-2)"/>
    <path id="Path_32" data-name="Path 32" d="M369.236,424.865c1.135,1.329,2.594,2.788,4.311,2.529a.934.934,0,0,1-1.272.3,2.73,2.73,0,0,1-.956-1.1l-2.457-4.146c-.323-.539-2.551-3.679-3.1-1.868C365.55,421.351,368.683,424.218,369.236,424.865Z" transform="translate(-128.052 -176.375)" opacity="0.1"/>
    <path id="Path_33" data-name="Path 33" d="M363.519,438.31a5.475,5.475,0,0,0-1.6-3.593,8.983,8.983,0,0,0-2.968-1.789,21.5,21.5,0,0,0-8.809-1.854c1.063,1.552,4.477,2.479,6.187,3.356Q359.963,436.305,363.519,438.31Z" transform="translate(-123.657 -179.481)" opacity="0.1"/>
    <path id="Path_34" data-name="Path 34" d="M369.487,477.92c-.5,3.679-3.507,6.467-6.553,8.623s-6.467,4.01-8.457,7.128c-1.38,2.156-2,4.656-3.169,6.905-1.293,2.479-3.226,4.563-4.771,6.891s-2.752,5.109-2.278,7.868a.927.927,0,0,0,.331.661.941.941,0,0,0,.913-.1c3.133-1.638,4.369-5.382,5.684-8.623a99.64,99.64,0,0,1,4.656-9.571c.776-1.437,1.631-3,3.075-3.8a26.985,26.985,0,0,1,3.032-1.056,10.2,10.2,0,0,0,3.744-2.939,24.675,24.675,0,0,0,5.748-16.749c-.043-1.286-.115-7.48-2.048-5.569S369.818,475.42,369.487,477.92Z" transform="translate(-121.972 -189.66)" opacity="0.1"/>
    <path id="Path_35" data-name="Path 35" d="M358.226,283.7c6.18,2.695,11.5,8.623,11.3,15.341-.165,7.056-6.072,13.7-4.038,20.464,1.178,3.923,4.728,6.553,7.538,9.535,10.7,11.324,10.678,31.092-.057,42.394-4.11,4.311-9.391,7.379-13.739,11.5-15.327,14.443-15.981,39.427-7.775,58.82a95.666,95.666,0,0,1-19.128,2.156c-3.011,0-6.7-.51-7.789-3.32-1.006-2.594.719-6.1-1.265-8.019-.934-.9-2.335-1.02-3.593-1.229-8.091-1.308-14.73-7.768-17.763-15.377s-2.874-16.175-1.135-24.179c1.236-5.784,3.169-12.151.3-17.324-3.593-6.51-13.925-9.255-13.767-16.7.129-6.1,7.322-9.068,11.4-13.6,7.53-8.35,3.945-21.3,3.93-32.557,0-9.9,3.463-20.119,10.836-26.716C324.454,274.993,345.572,278.2,358.226,283.7Z" transform="translate(-105.976 -136.542)" fill="#a26565"/>
    <g id="Group_1" data-name="Group 1" transform="translate(181.371 160.984)" opacity="0.1">
      <path id="Path_36" data-name="Path 36" d="M302.276,396.255c-3.154-5.691-11.439-8.508-13.365-14.105a7.969,7.969,0,0,0-1.552,4.5c-.158,7.444,10.16,10.189,13.767,16.706a13.573,13.573,0,0,1,1.437,7.487C303.7,405.841,304.7,400.624,302.276,396.255Z" transform="translate(-287.357 -326.7)"/>
      <path id="Path_37" data-name="Path 37" d="M397.239,317.749c1.293-3.772,3.169-7.581,3.262-11.5a10.773,10.773,0,0,0-.036-1.272C399.021,309.306,396.807,313.5,397.239,317.749Z" transform="translate(-318.268 -304.98)"/>
      <path id="Path_38" data-name="Path 38" d="M309.516,339.237c2.472-7.811.338-17.5.331-26.162,0-1.049.043-2.105.122-3.154a41.49,41.49,0,0,0-1.279,10.246C308.7,326.353,309.789,333.065,309.516,339.237Z" transform="translate(-293.362 -306.37)"/>
      <path id="Path_39" data-name="Path 39" d="M397.816,392.772c-4.11,4.311-9.391,7.379-13.739,11.5-7.76,7.308-11.748,17.317-12.747,27.93a41.077,41.077,0,0,1,11.6-20.838c4.311-4.1,9.629-7.15,13.739-11.5a30.531,30.531,0,0,0,8.012-19.444A29.18,29.18,0,0,1,397.816,392.772Z" transform="translate(-310.992 -326.213)"/>
      <path id="Path_40" data-name="Path 40" d="M338.335,480.523c-3.011,0-6.7-.517-7.789-3.327-1.006-2.587.719-6.093-1.265-8.019-.934-.9-2.342-1.02-3.593-1.229-8.084-1.3-14.723-7.768-17.755-15.37a38.434,38.434,0,0,1-2.156-17.8c-.057.237-.108.474-.158.719-1.71,8-1.89,16.577,1.135,24.186s9.672,14.069,17.755,15.37c1.279.208,2.687.338,3.593,1.229,2,1.926.259,5.432,1.265,8.019,1.092,2.81,4.778,3.363,7.789,3.327a95.733,95.733,0,0,0,19.128-2.156,64.253,64.253,0,0,1-2.321-6.417A95.394,95.394,0,0,1,338.335,480.523Z" transform="translate(-292.152 -341.512)"/>
    </g>
    <path id="Path_41" data-name="Path 41" d="M384.372,452.86c1.775,1.336,3.7-3.758,2.6-5.03C386.679,448.161,384.1,452.673,384.372,452.86Z" transform="translate(-133.286 -184.201)" opacity="0.1"/>
    <path id="Path_42" data-name="Path 42" d="M394.91,579.989c2.091-.719,4.311-1.437,5.677-3.162,1.128-1.387,2.055-6.891-.331-4.254C398.23,574.837,397.274,577.819,394.91,579.989Z" transform="translate(-136.257 -219.112)" opacity="0.1"/>
    <path id="Path_43" data-name="Path 43" d="M423.482,572.092a8.255,8.255,0,0,1-1.919,4.678c-.223.23-.719.374-.783.065a18.175,18.175,0,0,0,3.708-2.616c2.429-2.407,2.759-8.335-.941-9.909C423.51,566.911,423.877,569.448,423.482,572.092Z" transform="translate(-143.539 -216.984)" opacity="0.1"/>
    <path id="Path_44" data-name="Path 44" d="M448.464,557.432s-20.392-8.012-27.765-7.186,8.35,12.445,8.35,12.445l9.4,6.338s5.748-2.156,6.129-2.321S448.464,557.432,448.464,557.432Z" transform="translate(-142.962 -213.009)" fill="#454b69"/>
    <path id="Path_45" data-name="Path 45" d="M264.84,439.327s15.319-8.881,35.539,2.156,23.59,75.987,23.59,75.987-8.271,66.171,23.619,51.448c0,0,58.2-18.071,64.03-14.091,0,0,5.518,0-5.511,2.45s-53.64,15.952-53.64,15.952-13.775,4.814-19.609,0-22.368.618-24.517-32.478a575.562,575.562,0,0,0-7.66-62.2L295,461.7Z" transform="translate(-99.649 -180.857)" fill="#565661"/>
    <path id="Path_46" data-name="Path 46" d="M259.975,542.145s6.74-67.1-4.311-91.306c-9.614-21.1,27.564-11.231,37.264-8.357a7.063,7.063,0,0,1,3.722,2.659c5.748,8.084,26.371,40.483,20.292,83.833,0,0-2.45,38.608,12.869,44.73l-47.2-15.2c-3.83-1.236-7.717-2.263-11.641-3.154C265.967,554.209,257.819,550.983,259.975,542.145Z" transform="translate(-96.624 -181.339)" fill="#fff"/>
    <path id="Path_47" data-name="Path 47" d="M694.53,641.652h6.129l4.017-82.375.273-4.685-5.21-1.832-.345,4.98Z" transform="translate(-195.465 -155.581)" fill="#565661"/>
    <path id="Path_48" data-name="Path 48" d="M701.3,557.74l5.281,1.538.273-4.685-5.209-1.832Z" transform="translate(-197.371 -155.581)" opacity="0.1"/>
    <path id="Path_49" data-name="Path 49" d="M643.13,700.084a13.814,13.814,0,0,1-.862,3.291,5.813,5.813,0,0,1-2.623,3.277,6.927,6.927,0,0,1-2.651.524c-3.384.2-6.963.151-9.873-1.574a17.964,17.964,0,0,1-3.384-2.824,154.416,154.416,0,0,1-17.763-21.125c-.884-1.272-1.8-2.774-1.4-4.311a66.976,66.976,0,0,0,19.236-8.8,9.282,9.282,0,0,1,2.7-1.437,14.679,14.679,0,0,1,5.073-.187c1.631.266,1.7.316,2.328,2.156,1.035,3.111.862,6.467,2.026,9.578a29.678,29.678,0,0,0,2.687,4.915C641.628,688.588,643.935,694.516,643.13,700.084Z" transform="translate(-195.241 -245.824)" fill="#a26565"/>
    <path id="Path_50" data-name="Path 50" d="M643.13,703.361a13.814,13.814,0,0,1-.862,3.291,5.813,5.813,0,0,1-2.623,3.277,6.927,6.927,0,0,1-2.651.525c-3.384.2-6.963.151-9.873-1.574a17.964,17.964,0,0,1-3.384-2.824,154.421,154.421,0,0,1-17.763-21.125c-.884-1.272-1.8-2.773-1.4-4.311a66.714,66.714,0,0,0,6.582-2.2l.108.079a24.146,24.146,0,0,1,5.367,6.043l5.03,7.078a20.831,20.831,0,0,0,3.154,3.808,21.109,21.109,0,0,0,4.879,2.932c2.364,1.143,4.728,2.285,7.185,3.2C638.467,702.2,641.154,702.455,643.13,703.361Z" transform="translate(-195.241 -249.101)" opacity="0.1"/>
    <path id="Path_51" data-name="Path 51" d="M655.937,603.3a21.624,21.624,0,0,1-1.8,3.427,146.694,146.694,0,0,0-15.32,35.848c-.992-.223-1.552,1.128-1.545,2.156s0,2.321-.948,2.695c-.28.108-.6.108-.869.23-.6.273-.776,1.042-.862,1.7l-.848,6.223c-.295,2.156-.553,4.491.5,6.4a10.227,10.227,0,0,0,2.781,2.874l14.026,11.066c.575.453,1.286.934,1.976.683,1.574-.575.18-3.391,1.437-4.534.833-.783,2.156-.194,3.313-.287a3.748,3.748,0,0,0,3.032-2.96,14.077,14.077,0,0,0,.079-4.5,4.08,4.08,0,0,1,.23-2.019,4.9,4.9,0,0,1,1.717-1.645,18.438,18.438,0,0,0,7.552-15.549,8.624,8.624,0,0,1,.1-2.752,7.251,7.251,0,0,1,1.3-2.271,210.349,210.349,0,0,0,13.559-21.837c2.429-4.311,4.9-8.687,5.748-13.545a1.258,1.258,0,0,0-1.035-1.725,48.861,48.861,0,0,0-6.424-1.538c-6.6-1.336-12.977-3.4-19.4-5.382S657.87,598.114,655.937,603.3Z" transform="translate(-203.406 -225.775)" fill="#454b69"/>
    <path id="Path_52" data-name="Path 52" d="M587.5,650.484l10.117,1.222L644.186,546l12.56-.92,22.067,6.438L683.1,677.372h10.11l-3.981-130.453,24.208.618,43.2,107.538h9.19L720.389,529.394l-1.746-4.843-67.716-2.321-16.879,9.463-.216.546Z" transform="translate(-165.342 -146.989)" fill="#565661"/>
    <path id="Path_53" data-name="Path 53" d="M686.94,613.169c14.551,4.383,29.654,9.169,29.654,9.169s13.775,4.807,19.609,0a8.817,8.817,0,0,1,2.436-1.344,12,12,0,0,1-2.436,1.344L773.5,610.317l-1.725-4.836-67.716-2.321-16.879,9.463Z" transform="translate(-218.45 -227.919)" opacity="0.1"/>
    <path id="Path_54" data-name="Path 54" d="M744.268,585.659,716.7,579.53s-65.877,12.258-70.777,17.159c0,0,52.7,10.721,58.519,14.371S744.886,618.748,744.268,585.659Z" transform="translate(-206.904 -221.268)" fill="#fff"/>
    <path id="Path_55" data-name="Path 55" d="M620.329,713.665c-1.66,3.162-5.748,4.053-9.341,4.1a39.442,39.442,0,0,1-14.6-2.608,84.976,84.976,0,0,0-7.954-3.083c-4.089-1.121-8.623-1.028-12.215-3.276a14.371,14.371,0,0,1-4.592-4.98c-.208-.352-.41-.718-.6-1.092a15.388,15.388,0,0,1-1.559-10.836c.956-3.607,4.426-7.581,8.45-7.523,4.778.072,10.477,2.335,15.09,3.506,5.748,1.437,11.5,3.1,16.577,6.136A24.8,24.8,0,0,1,619.6,704.726a18.166,18.166,0,0,1,.948,2.673A8.38,8.38,0,0,1,620.329,713.665Z" transform="translate(-185.272 -250.775)" fill="#a26565"/>
    <path id="Path_56" data-name="Path 56" d="M621.1,720.856c-1.66,3.162-5.748,4.053-9.341,4.1a39.441,39.441,0,0,1-14.6-2.608,84.96,84.96,0,0,0-7.954-3.083c-4.089-1.121-8.623-1.028-12.215-3.277a14.371,14.371,0,0,1-4.592-4.98c-.208-.352-.41-.719-.6-1.092.719.057,1.38.129,1.739.165,4.412.424,8.623,2.034,12.833,3.248a72.082,72.082,0,0,0,17.964,2.8c4.311.122,8.809-.194,12.575-2.3a32.971,32.971,0,0,1,3.492-1.919,18.161,18.161,0,0,1,.949,2.673A8.52,8.52,0,0,1,621.1,720.856Z" transform="translate(-186.043 -257.966)" opacity="0.1"/>
    <path id="Path_57" data-name="Path 57" d="M645.071,533.914c-9.341-1.531-18.855-1.9-28.325-2.278l-11.583-.46a5.252,5.252,0,0,0-2.436.294,15.876,15.876,0,0,0-1.9,1.437,7.877,7.877,0,0,1-4.053.956,201.762,201.762,0,0,0-29.575,3.837c-5.03,1.028-10.254,2.371-14.033,5.842-4,3.672-5.748,9.269-5.885,14.687s1.286,10.742,2.788,15.945a72.642,72.642,0,0,1,3.14,19.3,36.1,36.1,0,0,0,.208,5.439,26.018,26.018,0,0,0,1.516,5.03l5.289,14.12c.467,1.236.927,2.465,1.437,3.672s1,2.156,1.437,3.291c.647,1.552,1.157,3.162,1.667,4.764l3.521,11.059.46,1.437c1.272,3.981,2.572,8.033,4.972,11.454s6.115,6.18,10.29,6.388a31.526,31.526,0,0,1,4.038.108,16.329,16.329,0,0,1,3.313,1.2,25.27,25.27,0,0,0,9.894,1.933c3.126,0,6.6-.869,8.292-3.5a12.194,12.194,0,0,0,1.437-4.9c.453-3.406.891-6.963-.266-10.2-.719-1.933-1.926-3.593-2.759-5.5-1.164-2.594-1.545-5.461-2.3-8.2a31.314,31.314,0,0,0-9.557-15.2A149.854,149.854,0,0,1,592.5,596.2a17.315,17.315,0,0,0-.869-4.311c-.841-2.156-2.544-3.9-3.255-6.1-.668-2.041-.467-4.4-1.681-6.158,10.11,2.781,20.119,2.156,30.617,1.99a83.648,83.648,0,0,0,10.06-.575,31.619,31.619,0,0,1,4.714-.5c3.248,0,6.294,1.437,9.276,2.7,8.429,3.593,17.31,6.417,26.464,6.8,9.449.4,18.79-1.825,28.023-4.024,4.06-.97,8.278-2.019,11.5-4.685s5.03-7.473,3.047-11.13c-1.509-2.752-4.635-4.1-7.552-5.253-8.076-3.19-16.2-6.3-23.978-10.16C666.98,549,658.091,536.07,645.071,533.914Z" transform="translate(-179.139 -207.649)" fill="#454b69"/>
    <path id="Path_58" data-name="Path 58" d="M657.464,483.654c-1.128,2.443-3.025,4.441-4.426,6.74a17.08,17.08,0,0,0-2.156,12.682,14.429,14.429,0,0,0,8.084,9.837,20.288,20.288,0,0,0,5.6,1.351c2.529.309,5.224.374,7.459-.848A10.894,10.894,0,0,0,676,509.263a42.117,42.117,0,0,0,4.038-10.505c1.861-6.7,3.449-13.566,3.219-20.515-.079-2.393-.553-5.087-2.536-6.467a8.53,8.53,0,0,0-3.334-1.092l-9.478-1.7c-1.832-.331-5.03-1.674-6.618-.352s-1.71,5.231-1.983,7.063C658.879,478.409,658.614,481.161,657.464,483.654Z" transform="translate(-208.188 -189.896)" fill="#a1616a"/>
    <path id="Path_59" data-name="Path 59" d="M812.289,447.892l-2.479,20.78a95.568,95.568,0,0,0-.884,11.181c0,2.084.065,4.4-1.315,5.957a5.431,5.431,0,0,1-2.472,1.487c-3.011.934-6.295.1-9.169-1.186a7.582,7.582,0,0,1-4.16-3.435,8.537,8.537,0,0,1-.539-3.643c0-12.395,1.171-25.322,7.646-35.884a7.826,7.826,0,0,1,2.278-2.63c1.8-1.15,4.146-.826,6.18-.2,1.25.381,4.627.8,5.425,1.919S812.462,446.462,812.289,447.892Z" transform="translate(-247.808 -181.928)" fill="#a1616a"/>
    <circle id="Ellipse_3" data-name="Ellipse 3" cx="25.868" cy="25.868" r="25.868" transform="translate(472.845 139.083)" fill="#a1616a"/>
    <path id="Path_60" data-name="Path 60" d="M716.066,351.693a13.343,13.343,0,0,1-1.6,5.748q19.81-3.018,39.52-6.726a18.56,18.56,0,0,1-9.169-10.778,30.441,30.441,0,0,1-1.164-7.681,88.8,88.8,0,0,1,.237-12.366c-4.6.481-8.953,2.206-13.336,3.686a131.49,131.49,0,0,1-13.43,3.758c-2.192.489-4.4.905-6.611,1.293-2.587.46-3.83.453-2.034,2.723C713.3,337.415,716.742,343.581,716.066,351.693Z" transform="translate(-224.273 -148.192)" fill="#a1616a"/>
    <path id="Path_61" data-name="Path 61" d="M710.667,356.808c-3.413.51-6.992,1.085-9.715,3.2A36.667,36.667,0,0,0,698,362.844c-5.411,5.253-13.049,7.365-19.616,11.073a8.623,8.623,0,0,0-2.788,2.192c-.719,1-1.085,2.271-1.839,3.262-.877,1.15-2.263,1.868-2.946,3.14s-.532,2.623-.6,3.974c-.165,2.968-1.286,5.784-2.156,8.623-3.988,13.588-1.8,28.742-7.839,41.575a5.842,5.842,0,0,0,3.176,3.32,18.036,18.036,0,0,0,4.714,1.013l13.372,1.66c1.911.237,3.938.46,5.684-.338a66.778,66.778,0,0,0-3.37,13.6,67.749,67.749,0,0,1-1.509,8.421c-1.839,6.323-6.467,11.59-11.949,15.19a4.419,4.419,0,0,0-1.689,1.559c-.719,1.437.345,3.047,1.1,4.455,2.192,4.081,1.89,8.982,1.861,13.609s.438,9.708,3.672,13.027c1.911,1.962,4.527,3.025,7.071,4.038l20.917,8.357a72.9,72.9,0,0,0,10.649,3.593c5.511,1.258,11.238,1.207,16.893.963q5.6-.237,11.2-.719a8.709,8.709,0,0,0,4.232-1.114,7.9,7.9,0,0,0,2.479-3.363c2.91-6.33,3.887-13.717,8.4-19.02,3.1-3.643,7.9-6.553,8.256-11.317.165-2.371-.891-4.678-.905-7.056,0-2.924,1.531-5.705,1.437-8.623-.194-4.75-4.671-8.371-5.382-13.07-1.811-11.914,4.239-23.813,7.954-35.274.668-2.048,1.531-4.311,3.5-5.188s4.742-.417,5.447-2.357a41.876,41.876,0,0,0,1.969-15.765c-.129-3-1.193-5.928-1.071-8.932.086-2.113.762-4.168.941-6.273.273-3.183-.568-6.345-1.437-9.42a14.756,14.756,0,0,0-1.121-3.176,15.092,15.092,0,0,0-1.868-2.565l-3.5-4.16c-1.638-1.947-3.37-3.966-5.748-4.951-.769-1.9-3.226-3.219-4.987-4.268a51.094,51.094,0,0,0-5.49-2.695l-19.789-8.738a8.105,8.105,0,0,0-2.35-.762,7.609,7.609,0,0,0-3.492.719C723.435,353.46,717.133,355.845,710.667,356.808Z" transform="translate(-210.926 -156.764)" fill="url(#linear-gradient-2)"/>
    <path id="Path_62" data-name="Path 62" d="M699.752,299.964c-.762-2.68-2.709-4.994-3-7.767-.266-2.465.819-4.85,1.437-7.25s.6-5.332-1.308-6.927c-.316-.273-.719-.517-.833-.92-.23-.719.5-1.372.719-2.1.41-1.437-1.365-3.025-.719-4.4.367-.754,1.286-1.02,2.091-1.257,3.075-.913,6.194-2.939,6.862-6.079,2.407,1.006,4.972-.884,6.819-2.716s4.117-3.923,6.661-3.37l-.568,1.157a18.4,18.4,0,0,1,12.165-.137h-1.207a16.685,16.685,0,0,1,9.621,3.255c-.309,0-.338.46-.216.719,1.006,2.35,3.593,3.593,6.086,4.175,1.5.359,3.133.618,4.232,1.7s1.121,3.327-.331,3.844a37.8,37.8,0,0,1,8.342,4.527c.719.525,1.531,1.236,1.437,2.156a7.01,7.01,0,0,1-.445,1.344,4.65,4.65,0,0,0,.151,2.3l.8,3.291c.877,3.657,1.566,8.062-1.1,10.714a9.837,9.837,0,0,1-1.732,11.612,4.785,4.785,0,0,1-3.593,6.187c.884,1.38.072,3.348-1.322,4.211a7.683,7.683,0,0,1-4.771.719,20.364,20.364,0,0,0-4.893-.273c-2.364.366-4.678,1.976-6.956,1.257a15.611,15.611,0,0,1-2.436-1.308,19.765,19.765,0,0,0-5.217-1.437,24.1,24.1,0,0,1-8.429-3.593,9.88,9.88,0,0,1-3.873-4.311c-1.581-4,1.078-9.233-1.717-12.488a4.937,4.937,0,0,0-6.718-.3c-.913.812-1.035,2.522-1.983,3.133a12.539,12.539,0,0,1-4.053.345Z" transform="translate(-220.971 -130.515)" fill="#464353"/>
    <path id="Path_63" data-name="Path 63" d="M650.949,600.919a11.855,11.855,0,0,1-2.608-2.874,5.36,5.36,0,0,1-.79-3.715,10.628,10.628,0,0,0,2.8,9.14c1.8,1.847,5.188,3.657,7.825,3.025C657.8,604.382,652.623,602.342,650.949,600.919Z" transform="translate(-207.32 -225.434)" opacity="0.1"/>
    <path id="Path_64" data-name="Path 64" d="M792.127,441.327s-15.319-8.881-35.539,2.156S733,519.469,733,519.469s8.271,66.171-23.619,51.448c0,0-58.2-18.072-64.03-14.091,0,0-5.518,0,5.511,2.45s53.64,15.952,53.64,15.952,13.775,4.814,19.609,0,22.368.618,24.517-32.478a575.534,575.534,0,0,1,7.66-62.2l5.684-16.85Z" transform="translate(-206.355 -181.42)" fill="#565661"/>
    <path id="Path_65" data-name="Path 65" d="M825.366,544.145s-6.74-67.1,4.311-91.306c9.614-21.1-27.564-11.231-37.264-8.357a7.063,7.063,0,0,0-3.722,2.659c-5.748,8.084-26.371,40.483-20.292,83.833,0,0,2.45,38.608-12.869,44.73l47.2-15.2c3.83-1.236,7.717-2.263,11.641-3.154C819.373,556.209,827.521,552.983,825.366,544.145Z" transform="translate(-237.754 -181.902)" fill="#fff"/>
    <ellipse id="Ellipse_4" data-name="Ellipse 4" cx="70.015" cy="11.245" rx="70.015" ry="11.245" transform="translate(641.338 470.226)" fill="#f9a826" opacity="0.1"/>
    <rect id="Rectangle_10" data-name="Rectangle 10" width="4.505" height="101.438" transform="translate(709.097 266.043)" fill="#535461"/>
    <path id="Path_66" data-name="Path 66" d="M1043.517,589.234l-.28,4.57-.4,6.467-.165,2.687-.4,6.467-.172,2.687-.4,6.467-4.541,73.342a12.431,12.431,0,0,1-12.4,11.612h-23.619a12.417,12.417,0,0,1-12.388-11.655l-4.556-73.35-.4-6.467-.165-2.687-.409-6.467-.165-2.687-.4-6.467-.287-4.57a6.467,6.467,0,0,1,6.424-6.833h48.3a6.467,6.467,0,0,1,6.417,6.884Z" transform="translate(-301.597 -222.062)" fill="#565661"/>
    <path id="Path_67" data-name="Path 67" d="M1008.394,517.36l-.4,6.445H948.222l-.4-6.445Z" transform="translate(-266.754 -145.618)" fill="#9d9cb5"/>
    <path id="Path_68" data-name="Path 68" d="M1008.048,530.08l-.4,6.453H949.012l-.4-6.453Z" transform="translate(-266.976 -149.198)" fill="#9d9cb5"/>
    <path id="Path_69" data-name="Path 69" d="M1007.7,542.8l-.4,6.445H949.8l-.4-6.445Z" transform="translate(-267.199 -152.778)" fill="#9d9cb5"/>
    <path id="Path_70" data-name="Path 70" d="M950.538,496.242c26.241,18.984,37.171,48.675,37.171,48.675s-31.616-1.085-57.865-20.069S892.68,476.18,892.68,476.18,924.3,477.265,950.538,496.242Z" transform="translate(-276.355 -192.18)" fill="#f9a826"/>
    <path id="Path_71" data-name="Path 71" d="M892.68,476.18s32.816,18.215,43.35,33.3,51.678,35.439,51.678,35.439" transform="translate(-276.355 -192.18)" fill="none" stroke="#535461" stroke-miterlimit="10" stroke-width="2"/>
    <path id="Path_72" data-name="Path 72" d="M984.451,446.6c14.285,10.326,20.234,26.493,20.234,26.493s-17.245-.6-31.494-10.922S953,435.68,953,435.68,970.173,436.269,984.451,446.6Z" transform="translate(-293.332 -180.781)" fill="#f9a826"/>
    <path id="Path_73" data-name="Path 73" d="M953,435.68s17.863,9.916,23.59,18.122,28.131,19.293,28.131,19.293" transform="translate(-293.332 -180.781)" fill="none" stroke="#535461" stroke-miterlimit="10" stroke-width="2"/>
    <path id="Path_74" data-name="Path 74" d="M1046.025,477.312c-16.4,18.028-19.875,41.59-19.875,41.59s23.13-5.677,39.52-23.712,19.875-41.59,19.875-41.59S1062.43,459.284,1046.025,477.312Z" transform="translate(-313.92 -185.825)" fill="#f9a826"/>
    <path id="Path_75" data-name="Path 75" d="M1085.56,453.61s-21.37,18.481-26.8,31.214S1026.15,518.9,1026.15,518.9" transform="translate(-313.92 -185.828)" fill="none" stroke="#535461" stroke-miterlimit="10" stroke-width="2"/>
    <path id="Path_76" data-name="Path 76" d="M572.911,414.77v1.638H524.33v-1.329a16.327,16.327,0,0,0,3.751-2,15.959,15.959,0,0,0,6.668-12.977,15.75,15.75,0,0,0-.5-3.93,15.973,15.973,0,0,0-8.824-10.584h47.151a15.973,15.973,0,0,0-8.824,10.584,15.746,15.746,0,0,0-.488,3.93,15.951,15.951,0,0,0,6.661,12.977,16.43,16.43,0,0,0,2.982,1.689Z" transform="translate(-172.683 -166.684)" fill="#dfe6f5"/>
    <path id="Path_77" data-name="Path 77" d="M573.011,385.59a15.973,15.973,0,0,0-8.824,10.584h-29.5a15.973,15.973,0,0,0-8.824-10.584Z" transform="translate(-173.113 -166.684)" opacity="0.1"/>
    <path id="Path_78" data-name="Path 78" d="M446.92,373.94v9.226c0,5.087,3.722,9.219,8.321,9.219H598.167c4.6,0,8.328-4.132,8.328-9.219V373.94Z" transform="translate(-150.896 -163.405)" fill="#dfe6f5"/>
    <path id="Path_79" data-name="Path 79" d="M572.911,425.539v1.638H524.33v-1.329a16.327,16.327,0,0,0,3.751-2h41.848a16.433,16.433,0,0,0,2.982,1.689Z" transform="translate(-172.683 -177.452)" opacity="0.1"/>
    <rect id="Rectangle_11" data-name="Rectangle 11" width="80.686" height="4.865" rx="2.432" transform="translate(335.595 246.908)" fill="#dfe6f5"/>
    <path id="Path_80" data-name="Path 80" d="M606.5,230.051a8.321,8.321,0,0,0-8.328-8.321H455.241a8.314,8.314,0,0,0-8.321,8.321V332.9H606.5Z" transform="translate(-150.896 -120.565)" fill="#474157"/>
    <path id="Path_81" data-name="Path 81" d="M603.847,236.876v88.382a4.1,4.1,0,0,1-4.1,4.1H457.076a4.1,4.1,0,0,1-4.1-4.1V236.876a4.038,4.038,0,0,1,.546-2.048,4.1,4.1,0,0,1,3.55-2.048H599.751a4.1,4.1,0,0,1,4.1,4.1Z" transform="translate(-152.601 -123.675)" fill="#4c4c78"/>
    <circle id="Ellipse_5" data-name="Ellipse 5" cx="1.919" cy="1.919" r="1.919" transform="translate(373.893 103.213)" fill="#fff"/>
    <circle id="Ellipse_6" data-name="Ellipse 6" cx="4.735" cy="4.735" r="4.735" transform="translate(371.077 215.407)" fill="#fff"/>
    <path id="Path_82" data-name="Path 82" d="M603.852,236.876H453a4.1,4.1,0,0,1,4.1-4.1H599.757a4.1,4.1,0,0,1,4.1,4.1Z" transform="translate(-152.607 -123.675)" fill="#c8cad7"/>
    <circle id="Ellipse_7" data-name="Ellipse 7" cx="1.028" cy="1.028" r="1.028" transform="translate(303.447 110.125)" fill="#ededf4"/>
    <circle id="Ellipse_8" data-name="Ellipse 8" cx="1.028" cy="1.028" r="1.028" transform="translate(306.522 110.125)" fill="#ededf4"/>
    <circle id="Ellipse_9" data-name="Ellipse 9" cx="1.028" cy="1.028" r="1.028" transform="translate(309.598 110.125)" fill="#ededf4"/>
  </g>
</svg>
