<svg xmlns="http://www.w3.org/2000/svg" xmlns:xlink="http://www.w3.org/1999/xlink" width="860.956" height="603.962" viewBox="0 0 860.956 603.962">
  <defs>
    <linearGradient id="linear-gradient" x1="0.5" x2="0.5" y2="1" gradientUnits="objectBoundingBox">
      <stop offset="0" stop-color="#6c63ff"/>
      <stop offset="1" stop-color="#363280"/>
    </linearGradient>
    <linearGradient id="linear-gradient-2" x1="0.5" x2="0.5" y2="1" gradientUnits="objectBoundingBox">
      <stop offset="0" stop-color="#e6e6e6"/>
      <stop offset="1" stop-color="#737373"/>
    </linearGradient>
  </defs>
  <g id="undraw_video_game_night_8h8m" transform="translate(-0.002 -0.103)">
    <path id="Path_1" data-name="Path 1" d="M916.662,400.177q18.262,19.153,40.749,6.112c-6.291-10.082-7.789-21.047-6.112-32.6h-29.2C923.389,383.841,923.041,393.293,916.662,400.177Z" transform="translate(-158.364 -147.901)" fill="#ffb8b8"/>
    <path id="Path_2" data-name="Path 2" d="M806.517,586.416l15.621-8.149,6.791-86.252v-45.5l-35.995-.679,10.187,45.5Z" fill="#ffb8b8"/>
    <path id="Path_3" data-name="Path 3" d="M761.238,586.416l-15.62-8.149-6.791-86.252v-45.5l35.994-.679-10.187,45.5Z" fill="#ffb8b8"/>
    <path id="Path_4" data-name="Path 4" d="M895.608,603.921l38.032-3.4,6.112-34.636,7.471,33.957,41.428-2.717c.905-16.5-1.394-33.486-6.791-50.936l-91.006-2.038Z" transform="translate(-158.364 -147.901)" fill="#2f2e41"/>
    <path id="Path_5" data-name="Path 5" d="M856.078,473.842l-45.749-35.228a6.653,6.653,0,0,0-1.552-.891l-6.649-2.705c-5.341-2.173-15.513-9.4-10.552-16.842,4-6,19.311,4.748,21.195,8.73a6.578,6.578,0,0,0,2.789,2.951l9.3,5.095a6.646,6.646,0,0,0,.7.331l35.4,14.347a6.654,6.654,0,0,0,6.063-.547l6.417-4.069a6.654,6.654,0,0,1,10.09,4.326l2.121,10.7a6.654,6.654,0,0,1-4.157,7.511l-18.978,7.234a6.654,6.654,0,0,1-6.43-.946Z" transform="translate(-158.364 -147.901)" fill="#ffb8b8"/>
    <path id="Path_6" data-name="Path 6" d="M864.576,448.175c12.666-3.4,11.336,14.3,21,23l19-15-11.005-53.281h0a19.8,19.8,0,0,0-13.049,11.949Z" transform="translate(-158.364 -147.901)" fill="#6c63ff"/>
    <path id="Path_7" data-name="Path 7" d="M888.137,547.552H983.9c-15.5-41.763-13.989-84.717-.793-128.488a3.263,3.263,0,0,0-1.6-3.84l-27.485-14.368c-10.789,7.02-22.385,4.863-34.636-4.754l-29.883,8.15C897.631,453.109,897.862,500.962,888.137,547.552Z" transform="translate(-158.364 -147.901)" fill="url(#linear-gradient)"/>
    <path id="Path_8" data-name="Path 8" d="M912.082,750.268l-39.907,1.692a7.045,7.045,0,0,1-7.266-6h0a7.045,7.045,0,0,1,5.29-7.885l6.769-1.659,26.6-15.42c3.941,4.081,9.369,7.532,16,10.471l.078,10.842A7.906,7.906,0,0,1,912.082,750.268Z" transform="translate(-158.364 -147.901)" fill="#535461"/>
    <path id="Path_10" data-name="Path 10" d="M972.07,749.662l39.907,1.692a7.045,7.045,0,0,0,7.266-6h0a7.045,7.045,0,0,0-5.29-7.885l-6.769-1.659-26.6-15.42c-3.941,4.081-9.369,7.532-16,10.471l-.078,10.842A7.906,7.906,0,0,0,972.07,749.662Z" transform="translate(-158.364 -147.901)" fill="#535461"/>
    <circle id="Ellipse_1" data-name="Ellipse 1" cx="21.733" cy="21.733" r="21.733" transform="translate(753.543 194.548)" fill="#ffb8b8"/>
    <path id="Path_11" data-name="Path 11" d="M967.6,540.76l-7.18,13.961A9.818,9.818,0,0,0,965.7,568.4h0a9.818,9.818,0,0,0,13.162-7.776l3-20.547,10.866-51.615-.679-25.808H970.314C977.727,481.853,974.05,510.166,967.6,540.76Z" transform="translate(-158.364 -147.901)" fill="#ffb8b8"/>
    <path id="Path_12" data-name="Path 12" d="M966.918,465.375h29.2l-4.239-32.027a26.235,26.235,0,0,0-14.777-20.267h0Z" transform="translate(-158.364 -147.901)" fill="#6c63ff"/>
    <path id="Path_13" data-name="Path 13" d="M956.745,352.211a20.9,20.9,0,0,0-4.568-16.413c-3.708-4.388-9.923-7.979-20.234-6.285-22.5,3.7-28.985,22.425-26.781,27.135s8.96,15.628,8.96,15.628-4.958-10.808.423-13.008,26.207-10.867,33.476-6.962a13.028,13.028,0,0,1,7.165,10.975Z" transform="translate(-158.364 -147.901)" fill="#2f2e41"/>
    <path id="Path_14" data-name="Path 14" d="M584.773,261.764l-8.738,4.434a197.757,197.757,0,0,0-39.44-53.181c-78.781-75.738-204.492-73.262-280.23,5.52s-73.262,204.492,5.52,280.23a198.061,198.061,0,0,0,50.9,35.526l-4.274,8.816A207.991,207.991,0,1,1,584.773,261.764Z" transform="translate(-158.364 -147.901)" fill="url(#linear-gradient-2)"/>
    <path id="Path_15" data-name="Path 15" d="M289.156,444.051a69.924,69.924,0,1,0,100.815,96.92l12.038-12.522-100.815-96.92Z" transform="translate(-158.364 -147.901)" fill="url(#linear-gradient-2)"/>
    <path id="Path_16" data-name="Path 16" d="M294.439,424.417a15.606,15.606,0,0,0,.434,22.041l92.467,88.9a15.588,15.588,0,1,0,21.606-22.475L316.48,423.983a15.606,15.606,0,0,0-22.041.434Z" transform="translate(-158.364 -147.901)" fill="#535461"/>
    <path id="Path_17" data-name="Path 17" d="M571.774,351.862l12.038-12.522A69.924,69.924,0,1,0,483,242.42l-12.038,12.522Z" transform="translate(-158.364 -147.901)" fill="url(#linear-gradient-2)"/>
    <path id="Path_18" data-name="Path 18" d="M463.587,248.473a15.606,15.606,0,0,0,.434,22.041l92.467,88.895a15.588,15.588,0,1,0,21.606-22.475l-92.467-88.895a15.606,15.606,0,0,0-22.041.434Z" transform="translate(-158.364 -147.901)" fill="#535461"/>
    <path id="Path_19" data-name="Path 19" d="M502.593,453.907v-7.223s31.517-17.728,57.124,0v6.566Z" transform="translate(-158.364 -147.901)" fill="#535461"/>
    <path id="Path_20" data-name="Path 20" d="M789.529,453.907v-7.223s31.517-17.728,57.125,0v6.566Z" transform="translate(-158.364 -147.901)" fill="#535461"/>
    <path id="Path_21" data-name="Path 21" d="M597.144,453.251h-30.86s-7.879-9.192-34.143-8.536-31.517,8.536-31.517,8.536-25.936,17.4-31.845,39.068c0,0-31.845,95.536-32.5,170.389s28.234,85.358,43.336,87.328,42.023-.657,68.287-66.974l11.162-38.741s1.97-22.981,25.607-8.536,44.649-7.879,44.649-7.879h88.641s29.547,18.385,56.468,3.94c0,0,10.506-13.789,20.355,32.83,0,0,30.2,95.864,76.823,86.015s41.366-89.955,41.366-89.955-6.238-122.456-31.845-165.792c0,0-24.623-44.977-41.038-46.947,0,0-35.457-6.566-49.245-.657l-7.879,6.566Z" transform="translate(-158.364 -147.901)" fill="url(#linear-gradient-2)"/>
    <circle id="Ellipse_2" data-name="Ellipse 2" cx="57.125" cy="57.125" r="57.125" transform="translate(310.086 312.573)" fill="#535461"/>
    <circle id="Ellipse_3" data-name="Ellipse 3" cx="57.125" cy="57.125" r="57.125" transform="translate(608.183 312.573)" fill="#535461"/>
    <path id="Path_22" data-name="Path 22" d="M535.528,504.86l-7.617,6.737a3.533,3.533,0,0,1-4.669,0l-7.63-6.737a3.526,3.526,0,0,1-1.2-2.626V483.7a3.533,3.533,0,0,1,3.533-3.526h15.266a3.526,3.526,0,0,1,3.533,3.519v18.53A3.526,3.526,0,0,1,535.528,504.86Z" transform="translate(-158.364 -147.901)" fill="#e6e6e6"/>
    <path id="Path_23" data-name="Path 23" d="M535.528,530.329l-7.617-6.73a3.532,3.532,0,0,0-4.668,0l-7.63,6.737a3.526,3.526,0,0,0-1.2,2.626v18.516a3.526,3.526,0,0,0,3.519,3.533h15.279a3.526,3.526,0,0,0,3.533-3.519V532.969A3.526,3.526,0,0,0,535.528,530.329Z" transform="translate(-158.364 -147.901)" fill="#e6e6e6"/>
    <path id="Path_24" data-name="Path 24" d="M512.843,527.565l6.737-7.63a3.533,3.533,0,0,0,0-4.669l-6.737-7.63a3.532,3.532,0,0,0-2.626-1.195H491.7a3.532,3.532,0,0,0-3.526,3.533v15.266a3.526,3.526,0,0,0,3.519,3.533h18.529A3.526,3.526,0,0,0,512.843,527.565Z" transform="translate(-158.364 -147.901)" fill="#e6e6e6"/>
    <path id="Path_25" data-name="Path 25" d="M538.312,527.565l-6.724-7.636a3.526,3.526,0,0,1,0-4.668l6.737-7.63a3.526,3.526,0,0,1,2.626-1.195h18.516A3.526,3.526,0,0,1,563,509.955v15.279a3.526,3.526,0,0,1-3.519,3.533H540.958a3.526,3.526,0,0,1-2.646-1.2Z" transform="translate(-158.364 -147.901)" fill="#e6e6e6"/>
    <circle id="Ellipse_4" data-name="Ellipse 4" cx="41.366" cy="41.366" r="41.366" transform="translate(403.324 390.708)" fill="#535461"/>
    <circle id="Ellipse_5" data-name="Ellipse 5" cx="41.366" cy="41.366" r="41.366" transform="translate(546.463 390.708)" fill="#535461"/>
    <circle id="Ellipse_6" data-name="Ellipse 6" cx="27.577" cy="27.577" r="27.577" transform="translate(417.113 404.497)" fill="#e6e6e6"/>
    <path id="Path_26" data-name="Path 26" d="M603.054,599.016a19.042,19.042,0,1,1,19.041-19.041A19.042,19.042,0,0,1,603.054,599.016Zm0-36.77a17.728,17.728,0,1,0,17.728,17.728,17.728,17.728,0,0,0-17.728-17.728Z" transform="translate(-158.364 -147.901)" fill="#535461"/>
    <circle id="Ellipse_7" data-name="Ellipse 7" cx="27.577" cy="27.577" r="27.577" transform="translate(560.252 404.497)" fill="#e6e6e6"/>
    <path id="Path_27" data-name="Path 27" d="M746.193,599.016a19.042,19.042,0,1,1,19.042-19.042,19.041,19.041,0,0,1-19.042,19.042Zm0-36.77a17.728,17.728,0,1,0,17.728,17.728,17.728,17.728,0,0,0-17.728-17.728Z" transform="translate(-158.364 -147.901)" fill="#535461"/>
    <circle id="Ellipse_8" data-name="Ellipse 8" cx="11.819" cy="11.819" r="11.819" transform="translate(505.754 424.851)" fill="#535461"/>
    <circle id="Ellipse_9" data-name="Ellipse 9" cx="2.58" cy="2.58" r="2.58" transform="translate(496.929 394.642)" fill="#535461"/>
    <circle id="Ellipse_10" data-name="Ellipse 10" cx="2.58" cy="2.58" r="2.58" transform="translate(506.595 394.642)" fill="#535461"/>
    <circle id="Ellipse_11" data-name="Ellipse 11" cx="2.58" cy="2.58" r="2.58" transform="translate(505.308 406.887)" fill="#535461"/>
    <circle id="Ellipse_12" data-name="Ellipse 12" cx="2.626" cy="2.626" r="2.626" transform="translate(514.29 407.124)" fill="#535461"/>
    <circle id="Ellipse_13" data-name="Ellipse 13" cx="2.58" cy="2.58" r="2.58" transform="translate(523.351 406.887)" fill="#535461"/>
    <circle id="Ellipse_14" data-name="Ellipse 14" cx="2.58" cy="2.58" r="2.58" transform="translate(501.44 401.09)" fill="#535461"/>
    <circle id="Ellipse_15" data-name="Ellipse 15" cx="2.626" cy="2.626" r="2.626" transform="translate(509.694 401.214)" fill="#535461"/>
    <circle id="Ellipse_16" data-name="Ellipse 16" cx="2.626" cy="2.626" r="2.626" transform="translate(518.23 401.214)" fill="#535461"/>
    <circle id="Ellipse_17" data-name="Ellipse 17" cx="2.58" cy="2.58" r="2.58" transform="translate(527.218 401.09)" fill="#535461"/>
    <circle id="Ellipse_18" data-name="Ellipse 18" cx="2.626" cy="2.626" r="2.626" transform="translate(514.29 394.648)" fill="#535461"/>
    <circle id="Ellipse_19" data-name="Ellipse 19" cx="2.626" cy="2.626" r="2.626" transform="translate(523.482 394.648)" fill="#535461"/>
    <circle id="Ellipse_20" data-name="Ellipse 20" cx="2.58" cy="2.58" r="2.58" transform="translate(531.086 394.642)" fill="#535461"/>
    <path id="Path_28" data-name="Path 28" d="M577.774,458.847a4.586,4.586,0,0,0-4.581,4.581v13.789a4.586,4.586,0,0,0,4.581,4.581h3.283a4.586,4.586,0,0,0,4.581-4.581V463.428a4.586,4.586,0,0,0-4.581-4.581Z" transform="translate(-158.364 -147.901)" fill="#535461"/>
    <path id="Path_29" data-name="Path 29" d="M769.5,458.847a4.586,4.586,0,0,0-4.581,4.581v13.789A4.586,4.586,0,0,0,769.5,481.8h3.283a4.586,4.586,0,0,0,4.581-4.581V463.428a4.586,4.586,0,0,0-4.581-4.581Z" transform="translate(-158.364 -147.901)" fill="#535461"/>
    <circle id="Ellipse_21" data-name="Ellipse 21" cx="15.759" cy="15.759" r="15.759" transform="translate(650.206 319.138)" fill="#e6e6e6"/>
    <circle id="Ellipse_22" data-name="Ellipse 22" cx="15.759" cy="15.759" r="15.759" transform="translate(616.719 352.625)" fill="#e6e6e6"/>
    <circle id="Ellipse_23" data-name="Ellipse 23" cx="15.759" cy="15.759" r="15.759" transform="translate(685.006 350.655)" fill="#e6e6e6"/>
    <circle id="Ellipse_24" data-name="Ellipse 24" cx="15.759" cy="15.759" r="15.759" transform="translate(652.833 385.456)" fill="#e6e6e6"/>
    <path id="Path_30" data-name="Path 30" d="M607.485,449.654A13.3,13.3,0,0,0,594.2,462.935V521.7a13.3,13.3,0,0,0,13.281,13.281H742.417A13.3,13.3,0,0,0,755.7,521.7V462.936a13.3,13.3,0,0,0-13.281-13.282Z" transform="translate(-158.364 -147.901)" fill="#535461"/>
    <path id="Path_31" data-name="Path 31" d="M835.034,490.02H813.665l10.317-17.685Zm-19.083-1.313h16.713l-8.645-13.832Z" transform="translate(-158.364 -147.901)" fill="#535461"/>
    <path id="Path_32" data-name="Path 32" d="M799.706,524.164H781.978V508.4h17.728Zm-16.415-1.313h15.1V509.718h-15.1Z" transform="translate(-158.364 -147.901)" fill="#535461"/>
    <path id="Path_33" data-name="Path 33" d="M859.129,524.164a9.849,9.849,0,1,1,9.849-9.849A9.849,9.849,0,0,1,859.129,524.164Zm0-18.385a8.536,8.536,0,1,0,8.536,8.536,8.536,8.536,0,0,0-8.536-8.536Z" transform="translate(-158.364 -147.901)" fill="#535461"/>
    <rect id="Rectangle_1" data-name="Rectangle 1" width="1.313" height="20.893" transform="translate(660.581 394.29) rotate(-45)" fill="#535461"/>
    <rect id="Rectangle_2" data-name="Rectangle 2" width="20.898" height="1.313" transform="translate(660.589 407.802) rotate(-43.734)" fill="#535461"/>
    <path id="Path_34" data-name="Path 34" d="M297.935,299.615c-35.85,9.884-75.108,17.324-89.175,5.781,7.7-12.822,12.144-25.459,12.521-37.867a21.771,21.771,0,0,1,6.408-15.1,24.371,24.371,0,0,1,20.328-6.606l9.3,1.306q.47.066.935.15a21.759,21.759,0,0,1,17.495,18.335C277.711,279.066,284.3,290.714,297.935,299.615Z" transform="translate(-158.364 -147.901)" fill="#2f2e41"/>
    <path id="Path_35" data-name="Path 35" d="M332.517,427.259l13.937,2.874A7.32,7.32,0,0,1,351.7,440.2h0a7.32,7.32,0,0,1-10.557,3.338l-21.319-13.112L283.611,345.3l18.756-5.425Z" transform="translate(-158.364 -147.901)" fill="#a0616a"/>
    <path id="Path_36" data-name="Path 36" d="M74.869,391.06l-10.553,3.069-7.988-16.5,8.123-4.233Z" fill="#a0616a"/>
    <path id="Path_37" data-name="Path 37" d="M69.507,461.743l-12.948-3.428,2.027-22.245,11.143.686Z" fill="#a0616a"/>
    <path id="Path_38" data-name="Path 38" d="M229.221,523.539l-13.714,9.025L162.763,472.9a11.756,11.756,0,0,1,2.777-17.878l65.706-39.261,10.064,28.91L207.1,476.782Z" transform="translate(-158.364 -147.901)" fill="#2f2e41"/>
    <path id="Path_39" data-name="Path 39" d="M240.77,554.769l-.1.134c-.876,5.132-2.416,9.813-5.853,13.2a10.229,10.229,0,0,1-12.423,5.611h0a10.229,10.229,0,0,1-7.094-10.894l2.563-22.905c6.147-1.413,10.835-4.909,13.208-11.71l5.974,4.069a15.705,15.705,0,0,1,3.728,22.494Z" transform="translate(-158.364 -147.901)" fill="#2f2e41"/>
    <circle id="Ellipse_25" data-name="Ellipse 25" cx="21.108" cy="21.108" r="21.108" transform="translate(67.8 104.594)" fill="#a0616a"/>
    <path id="Path_40" data-name="Path 40" d="M265.551,307.345,232.275,334.9l-2.592-11.344,5.808-8.854c1.612-8.686.571-18.265-2.2-28.426l21.71.02C255.94,294.511,259.137,301.674,265.551,307.345Z" transform="translate(-158.364 -147.901)" fill="#a0616a"/>
    <path id="Path_41" data-name="Path 41" d="M274.919,379.635,230,393.319,226.5,377.341c-8.419-11.3-12.078-21.621-6.571-30.038l-2.772-12.671c7.951-6.26,14.2-12.665,17.636-19.31l27.639-10.8,20.319,1.25,6,20.107Z" transform="translate(-158.364 -147.901)" fill="url(#linear-gradient)"/>
    <path id="Path_42" data-name="Path 42" d="M306.833,342.123a46.281,46.281,0,0,0-26.823,8.218l2.742-44.57h0a16.176,16.176,0,0,1,12.744,9.7Z" transform="translate(-158.364 -147.901)" fill="#6c63ff"/>
    <path id="Path_43" data-name="Path 43" d="M229.081,589.981l-14.258-3.509,2.1-121.153,19.146-20.967-4.286-26.581-2.773-29.777,46.768-11.6c15.808,28.7,25.362,54.8,11.415,71.1Z" transform="translate(-158.364 -147.901)" fill="#2f2e41"/>
    <path id="Path_44" data-name="Path 44" d="M225.806,630.886l-.192.075c-4.14,4.807-8.689,8.727-14.408,10.106a12.466,12.466,0,0,1-16.5-1.949h0a12.466,12.466,0,0,1-.56-15.833l17.07-22.305c7.306,2.388,14.4,1.684,21.15-3.926l3.681,8a19.139,19.139,0,0,1-10.244,25.829Z" transform="translate(-158.364 -147.901)" fill="#2f2e41"/>
    <path id="Path_45" data-name="Path 45" d="M173.72,441.832,161.2,452.547a8.121,8.121,0,0,0,1.941,13.571h0a8.121,8.121,0,0,0,10.5-3.565l9.05-16.88,41.5-75.739L208.589,367Z" transform="translate(-158.364 -147.901)" fill="#a0616a"/>
    <path id="Path_46" data-name="Path 46" d="M226.7,372.062c-8.107-2.447-15.7-3.888-21.589-1.986,1.235-15.276,3.779-28.923,12.05-35.444l11.758,1.381Z" transform="translate(-158.364 -147.901)" fill="#6c63ff"/>
    <path id="Path_47" data-name="Path 47" d="M270.835,268.708,225.69,265.93l.556-9.029q23.639-15.939,45.145,2.778Z" transform="translate(-158.364 -147.901)" fill="#2f2e41"/>
  </g>
</svg>
