<svg xmlns="http://www.w3.org/2000/svg" viewBox="0 0 281.4 46.75"><defs><style>.cls-1{isolation:isolate;}.cls-2{fill:#f9a826;}</style></defs><g id="Layer_2" data-name="Layer 2"><g id="Layer_1-2" data-name="Layer 1"><g class="cls-1"><path class="cls-2" d="M.49,42.36C.33,41,.2,39.56.12,38S0,34.91,0,33.54q0-3.28.22-6.3t.54-6.32q.31-3.3.71-7.2c.26-2.6.49-5.59.69-9A6.68,6.68,0,0,1,4,5.1c.8.24,1.61.53,2.43.85A21.12,21.12,0,0,1,8.58,7c.62.34,1,.63,1.07.86a27,27,0,0,0-1.49,5q-.66,3.11-1.1,6.79t-.69,7.54Q6.13,31,6.13,34.42c0,1,0,2.08,0,3.09s.09,1.94.15,2.79A34.8,34.8,0,0,0,8.7,36q1.35-2.82,2.79-6.3c1-2.32,1.93-4.75,2.89-7.28s1.86-4.95,2.67-7.25,1.51-4.38,2.08-6.22,1-3.24,1.2-4.19a7.16,7.16,0,0,1,1.89.37c.83.24,1.65.53,2.45.85A21.46,21.46,0,0,1,26.8,7c.62.34,1,.63,1,.86a27,27,0,0,0-1.49,5q-.66,3.11-1.11,6.79t-.68,7.54c-.16,2.58-.25,5-.25,7.25q0,1.42,0,2.82c0,.93.06,1.77.12,2.52,1.05-2.71,2.13-5.39,3.26-8.06s2.25-5.21,3.36-7.64,2.18-4.7,3.23-6.81,2-4,2.89-5.64,1.65-3,2.3-4.09A12.94,12.94,0,0,1,41,5.37a6.47,6.47,0,0,1,2.33.8,8.31,8.31,0,0,1,2.13,1.7,18.1,18.1,0,0,0-3.23,3.69c-1.21,1.72-2.45,3.7-3.73,6s-2.55,4.65-3.84,7.2-2.49,5-3.6,7.45-2.1,4.67-3,6.76-1.53,3.77-2,5a6,6,0,0,1-2.5.59,11.61,11.61,0,0,1-3-.79,4.41,4.41,0,0,1-2-1.42c-.1-.52-.18-1.13-.25-1.84s-.11-1.39-.14-2.08-.06-1.35-.08-2,0-1.19,0-1.65c0-2.9.11-5.87.34-8.89s.51-6.26.83-9.73c-.75,2.23-1.58,4.61-2.49,7.16S15,28.42,14,30.92s-2,4.88-3,7.15a64.17,64.17,0,0,1-3,5.91,6,6,0,0,1-2.5.59,11.72,11.72,0,0,1-3-.79A4.41,4.41,0,0,1,.49,42.36Z"/><path class="cls-2" d="M55.86,20.56a16.7,16.7,0,0,1-1.08,5.21,11.5,11.5,0,0,1-2.52,3.83,18.47,18.47,0,0,1-4,3,43.72,43.72,0,0,1-5.48,2.55c0,.19,0,.4,0,.61s0,.43,0,.66a8.79,8.79,0,0,0,.1,1.33A4.75,4.75,0,0,0,43.17,39a2.5,2.5,0,0,0,.68,1A1.74,1.74,0,0,0,45,40.3a6,6,0,0,0,2.6-.59A13.21,13.21,0,0,0,50,38.27a19.23,19.23,0,0,0,2.16-1.86c.67-.67,1.27-1.28,1.79-1.84a10.8,10.8,0,0,1,.83.83A23.76,23.76,0,0,1,50,40.28a13.74,13.74,0,0,1-5,2.47,8.07,8.07,0,0,1-5.27-2.47,7.24,7.24,0,0,1-1.88-5,15.93,15.93,0,0,1,.56-4.1,20.47,20.47,0,0,1,1.57-4,22.93,22.93,0,0,1,2.35-3.65,19.14,19.14,0,0,1,2.89-3,13.91,13.91,0,0,1,3.19-2,7.92,7.92,0,0,1,3.26-.74A6.6,6.6,0,0,1,55.86,20.56Zm-3.38,1.61a7.28,7.28,0,0,0-2.75,1.08,11.8,11.8,0,0,0-2.67,2.35A18.73,18.73,0,0,0,44.79,29a19.63,19.63,0,0,0-1.62,4.22,22.11,22.11,0,0,0,6.52-4.83A10,10,0,0,0,52.48,22.17Z"/><path class="cls-2" d="M58.06,37.71a25.93,25.93,0,0,1,1-6.06q1-3.88,2.89-9.09,3-8.28,5.71-13.79A43.64,43.64,0,0,1,72.91.17a6.32,6.32,0,0,1,1.45.49c.57.26,1.13.55,1.69.86a15.4,15.4,0,0,1,1.49,1,3.85,3.85,0,0,1,.86.79A59.61,59.61,0,0,0,71.69,13a79.06,79.06,0,0,0-5.3,11.91,97.27,97.27,0,0,0-3.13,10.41A35.21,35.21,0,0,0,62.18,43v1a1.74,1.74,0,0,0,0,.39,4.11,4.11,0,0,1-1.18-.34,1.26,1.26,0,0,1-.63-.59,2.83,2.83,0,0,0-.54-.71,5.75,5.75,0,0,0-.79-.71,2.62,2.62,0,0,1-.73-1.55A12,12,0,0,1,58.06,37.71Z"/><path class="cls-2" d="M69.68,32.22a13.33,13.33,0,0,1,1.15-5.42,16.62,16.62,0,0,1,3-4.65,15.26,15.26,0,0,1,4.31-3.28,10.75,10.75,0,0,1,5-1.25,5.54,5.54,0,0,1,3.92,1.27,4.69,4.69,0,0,1,1.37,3.63,7.28,7.28,0,0,1-.32,2.18,7.87,7.87,0,0,1-.83,1.88,4.65,4.65,0,0,1-1.2,1.35,2.29,2.29,0,0,1-1.37.51,2.37,2.37,0,0,1-1.2-.36,3.31,3.31,0,0,1-1-1q3.28-3,3.29-5.44c0-.94-.38-1.42-1.13-1.42a4.93,4.93,0,0,0-2.45.93,13.79,13.79,0,0,0-2.84,2.45,16.67,16.67,0,0,0-3.21,5.22,16.46,16.46,0,0,0-1.1,6c0,2.65.58,4.23,1.76,4.76a9.81,9.81,0,0,0,1.71-.44,17.22,17.22,0,0,0,2.11-.91c.75-.38,1.53-.81,2.33-1.3s1.57-1,2.33-1.57a1.32,1.32,0,0,1,.34.44,1.23,1.23,0,0,1,.15.54,18.82,18.82,0,0,1-1.91,2,20.17,20.17,0,0,1-2.26,1.79,18.85,18.85,0,0,1-2.28,1.37,6.69,6.69,0,0,1-1.93.71,7,7,0,0,1-3-1A8.87,8.87,0,0,1,72,39a11.28,11.28,0,0,1-2.28-6.81Z"/><path class="cls-2" d="M95.75,42.56a6.25,6.25,0,0,1-4.46-2.45,8.67,8.67,0,0,1-1.67-5.49,15.23,15.23,0,0,1,.59-4.07,20,20,0,0,1,1.66-4.09,23.39,23.39,0,0,1,2.55-3.75,18.61,18.61,0,0,1,3.19-3,8.58,8.58,0,0,1,5-2,8.61,8.61,0,0,1,3.09,3.47,3,3,0,0,0,.44,0,2.94,2.94,0,0,1,.44,0q2.59,0,2.6,4.61a17.3,17.3,0,0,1-1,5.86,17.89,17.89,0,0,1-2.8,5,16.66,16.66,0,0,1-4.26,3.8A17,17,0,0,1,95.75,42.56Zm2.49-15.44a24.46,24.46,0,0,0-2.84,5.12,18.94,18.94,0,0,0-.83,2.6,9.67,9.67,0,0,0-.3,2.23,6.58,6.58,0,0,0,.4,2.25c.26.72.55,1.13.88,1.23a10.67,10.67,0,0,0,4-1.84,13.29,13.29,0,0,0,3.19-3.36,16.66,16.66,0,0,0,2.1-4.55,18.82,18.82,0,0,0,.76-5.44,11.61,11.61,0,0,0-.14-2,3.83,3.83,0,0,0-.49-1.27,10.6,10.6,0,0,0-3.85,2.05A20.49,20.49,0,0,0,98.24,27.12Z"/><path class="cls-2" d="M139.89,25.82a3.25,3.25,0,0,0-1.91,1,23.48,23.48,0,0,0-2.42,2.45q-1.31,1.5-2.7,3.32t-2.69,3.6l-2.43,3.36c-.75,1.05-1.39,1.89-1.91,2.51a5.17,5.17,0,0,1-1.86-1.3,5.07,5.07,0,0,1-1.13-2.13,29.66,29.66,0,0,1,.69-3.16,30.31,30.31,0,0,1,1.15-3.4,35.71,35.71,0,0,1,1.76-3.69A42.74,42.74,0,0,1,129,24.25a3.78,3.78,0,0,0-2,1,24.51,24.51,0,0,0-2.75,2.6c-1,1.06-2,2.26-3,3.58s-2,2.63-2.94,3.9c-1.2,1.71-2.21,3.19-3,4.47a8.77,8.77,0,0,1-1.74,2.26,5.18,5.18,0,0,1-1.76-2,10.54,10.54,0,0,1-.74-2.4,22.11,22.11,0,0,1,.37-2.94,29.19,29.19,0,0,1,.91-3.63,47,47,0,0,1,2.91-7.1c1.19-2.36,2.35-4.51,3.46-6.47a8.11,8.11,0,0,1,2.47.93,11.6,11.6,0,0,1,2.33,1.86A15.35,15.35,0,0,1,122,23.52l-2.16,3.55c-.75,1.24-1.43,2.52-2,3.82a14.11,14.11,0,0,0-1.23,4c.92-1.3,2-2.81,3.26-4.5s2.55-3.3,3.87-4.81a32.46,32.46,0,0,1,3.94-3.82,6,6,0,0,1,3.53-1.57,4.77,4.77,0,0,1,1.28.2,7.12,7.12,0,0,1,1.27.49,9,9,0,0,1,1,.56c.26.18.41.32.44.42a12.86,12.86,0,0,1-1.15,2.67c-.6,1.13-1.25,2.31-1.94,3.55s-1.32,2.45-1.91,3.6a10.1,10.1,0,0,0-1,2.77q2.41-3.29,4.51-6a59.38,59.38,0,0,1,4-4.58A20.08,20.08,0,0,1,141,21a5.55,5.55,0,0,1,3-1,3.57,3.57,0,0,1,1.84.51,2.76,2.76,0,0,1,1.2,1.5,25.29,25.29,0,0,1-1.45,3.53c-.67,1.37-1.34,2.81-2,4.33s-1.3,3-1.84,4.49a11.64,11.64,0,0,0-.81,4,2.06,2.06,0,0,0,.3,1.34,1.07,1.07,0,0,0,.83.32,2.7,2.7,0,0,0,1.1-.22,2.2,2.2,0,0,1,.76-.22.74.74,0,0,1,.35.49,3.62,3.62,0,0,1,0,.54,11.64,11.64,0,0,1-2,1.3,5.08,5.08,0,0,1-2.3.51,4.19,4.19,0,0,1-1.93-.39,3.35,3.35,0,0,1-1.25-1.08,4.09,4.09,0,0,1-.69-1.56,8.82,8.82,0,0,1-.2-1.91,12.38,12.38,0,0,1,.45-3.3,24.45,24.45,0,0,1,1-3.13,30.23,30.23,0,0,1,1.3-2.79C139.18,27.28,139.57,26.51,139.89,25.82Z"/><path class="cls-2" d="M166.6,20.56a16.7,16.7,0,0,1-1.08,5.21A11.5,11.5,0,0,1,163,29.6a18.47,18.47,0,0,1-4,3,43.72,43.72,0,0,1-5.48,2.55c0,.19,0,.4,0,.61s0,.43,0,.66a10.25,10.25,0,0,0,.09,1.33,5.17,5.17,0,0,0,.35,1.27,2.5,2.5,0,0,0,.68,1,1.74,1.74,0,0,0,1.13.36,6,6,0,0,0,2.6-.59,13.21,13.21,0,0,0,2.42-1.44,19.23,19.23,0,0,0,2.16-1.86c.67-.67,1.26-1.28,1.79-1.84a10.8,10.8,0,0,1,.83.83,23.55,23.55,0,0,1-4.83,4.88,13.62,13.62,0,0,1-5,2.47,8.07,8.07,0,0,1-5.27-2.47,7.2,7.2,0,0,1-1.88-5,15.5,15.5,0,0,1,.56-4.1,20.47,20.47,0,0,1,1.57-4,22.93,22.93,0,0,1,2.35-3.65,19.14,19.14,0,0,1,2.89-3,13.91,13.91,0,0,1,3.19-2,7.91,7.91,0,0,1,3.25-.74A6.6,6.6,0,0,1,166.6,20.56Zm-3.38,1.61a7.28,7.28,0,0,0-2.75,1.08,11.8,11.8,0,0,0-2.67,2.35A19.28,19.28,0,0,0,155.52,29a20.14,20.14,0,0,0-1.61,4.22,22.11,22.11,0,0,0,6.52-4.83A10,10,0,0,0,163.22,22.17Z"/><path class="cls-2" d="M214.47,13.84a9.16,9.16,0,0,1-1.67,5.42,12.94,12.94,0,0,1-4.55,3.94,10,10,0,0,1,3,3.11,7.7,7.7,0,0,1,1.1,4.05,9.8,9.8,0,0,1-1.59,5.21,16.45,16.45,0,0,1-4.24,4.56,23.21,23.21,0,0,1-6,3.21,20.1,20.1,0,0,1-6.91,1.23,14.72,14.72,0,0,1-6.69-1.45A10.82,10.82,0,0,1,182.38,39c.32-1,.76-2.2,1.29-3.65s1.14-3,1.79-4.61,1.32-3.22,2-4.82,1.3-3,1.88-4.32c1.24-2.77,2.36-5.08,3.34-6.91a34.33,34.33,0,0,1,2.69-4.36,36.86,36.86,0,0,0-4.9,1.89,12.67,12.67,0,0,0-3.23,2,3.9,3.9,0,0,1-.91-.88,10.92,10.92,0,0,1-.88-1.3,8.62,8.62,0,0,1-.69-1.44,5.42,5.42,0,0,1-.32-1.33,17.43,17.43,0,0,1,3.31-1.69,34.64,34.64,0,0,1,4.44-1.39,48.6,48.6,0,0,1,4.92-.93A35.67,35.67,0,0,1,201.93,5q5.88,0,9.21,2.36A7.53,7.53,0,0,1,214.47,13.84ZM195.8,25.55a5.26,5.26,0,0,1-1.71-1.32c-.75,1.67-1.47,3.3-2.14,4.9s-1.26,3.09-1.78,4.46-.95,2.56-1.28,3.58a11.88,11.88,0,0,0-.54,2.2A5.61,5.61,0,0,0,190,40a12,12,0,0,0,2.37.2,21.3,21.3,0,0,0,6.37-.94,19.11,19.11,0,0,0,5.34-2.52,13.75,13.75,0,0,0,3.68-3.65,7.69,7.69,0,0,0,1.37-4.31,4.85,4.85,0,0,0-2.79-4.66,22.5,22.5,0,0,1-8.63,1.57h-1.05A4.13,4.13,0,0,1,195.8,25.55Zm9.51-17a20.9,20.9,0,0,0-2.18.12c-.77.08-1.58.21-2.43.37a1.8,1.8,0,0,1,.32.42,3.25,3.25,0,0,1,.22.46,18.51,18.51,0,0,0-1.08,1.72c-.42.75-.9,1.62-1.42,2.62s-1.07,2.1-1.64,3.31l-1.74,3.72a16.13,16.13,0,0,1,2-.32c.8-.08,1.6-.12,2.38-.12.42,0,.84,0,1.25,0a11.57,11.57,0,0,1,1.2.15,20,20,0,0,0,4.24-1.16,14.74,14.74,0,0,0,3.26-1.76,7.58,7.58,0,0,0,2.1-2.23,5,5,0,0,0,.74-2.6,4,4,0,0,0-1.86-3.55A10,10,0,0,0,205.31,8.55Z"/><path class="cls-2" d="M232.65,21.05a4.38,4.38,0,0,1,1.15.17,5.85,5.85,0,0,1,1.2.44,5.74,5.74,0,0,1,.91.56c.24.2.37.38.37.54-.66,1.37-1.26,2.75-1.82,4.14s-1,2.72-1.42,4a34.08,34.08,0,0,0-.9,3.58,15.11,15.11,0,0,0-.32,2.89,7.35,7.35,0,0,0,.29,2.28,2.18,2.18,0,0,0,1,1.3,5.26,5.26,0,0,1-1.52.64,6.71,6.71,0,0,1-1.66.24q-2.66,0-2.65-3.62a23.06,23.06,0,0,1,1.86-7.65,28.72,28.72,0,0,1-2.25,4.22,30.16,30.16,0,0,1-2.6,3.49,15,15,0,0,1-2.67,2.46,6.22,6.22,0,0,1-2.47,1.15,3.42,3.42,0,0,1-2.94-1.65,7.22,7.22,0,0,1-1.13-4.2,16.21,16.21,0,0,1,1.17-5.81,26.24,26.24,0,0,1,3-5.66,21,21,0,0,1,4-4.35,6.7,6.7,0,0,1,4.17-1.75,3.87,3.87,0,0,1,1.1.59,8.53,8.53,0,0,1,1.18,1,7.93,7.93,0,0,1,.95,1.2,2.59,2.59,0,0,1,.44,1,8.84,8.84,0,0,0-4,1.91,19.59,19.59,0,0,0-3.77,3.88A22.82,22.82,0,0,0,220.5,33a12.6,12.6,0,0,0-1.08,4.84A1.09,1.09,0,0,0,220.1,39a6.77,6.77,0,0,0,3.29-2.43A46.93,46.93,0,0,0,227.9,30c.32-.58.69-1.24,1.1-2s.82-1.47,1.25-2.25.84-1.58,1.25-2.38S232.29,21.8,232.65,21.05Z"/><path class="cls-2" d="M238.68,32.22a13.33,13.33,0,0,1,1.15-5.42,16.81,16.81,0,0,1,3-4.65,15.45,15.45,0,0,1,4.32-3.28,10.73,10.73,0,0,1,5-1.25,5.55,5.55,0,0,1,3.92,1.27,4.73,4.73,0,0,1,1.37,3.63,7.28,7.28,0,0,1-.32,2.18,7.87,7.87,0,0,1-.83,1.88,4.65,4.65,0,0,1-1.2,1.35,2.29,2.29,0,0,1-1.37.51,2.37,2.37,0,0,1-1.2-.36,3.2,3.2,0,0,1-1-1q3.28-3,3.29-5.44c0-.94-.38-1.42-1.13-1.42a4.89,4.89,0,0,0-2.45.93,13.79,13.79,0,0,0-2.84,2.45,16.67,16.67,0,0,0-3.21,5.22,16.46,16.46,0,0,0-1.11,6c0,2.65.59,4.23,1.77,4.76a9.81,9.81,0,0,0,1.71-.44,17.22,17.22,0,0,0,2.11-.91c.75-.38,1.53-.81,2.33-1.3s1.57-1,2.33-1.57a1.32,1.32,0,0,1,.34.44,1.23,1.23,0,0,1,.15.54,18.82,18.82,0,0,1-1.91,2,21.12,21.12,0,0,1-2.26,1.79,18.85,18.85,0,0,1-2.28,1.37,6.69,6.69,0,0,1-1.93.71,7,7,0,0,1-3-1A9,9,0,0,1,241,39a11.19,11.19,0,0,1-1.66-3.14A11,11,0,0,1,238.68,32.22Z"/><path class="cls-2" d="M259.06,36.16a18.81,18.81,0,0,1,.91-4.9q.9-3.14,2.37-6.86t3.34-7.69c1.24-2.65,2.49-5.11,3.74-7.4a67.37,67.37,0,0,1,3.63-5.93A14.65,14.65,0,0,1,276,0a3.14,3.14,0,0,1,1.5.59A7.9,7.9,0,0,1,279,1.89a8.22,8.22,0,0,1,1.15,1.59A3.19,3.19,0,0,1,280.62,5a31,31,0,0,0-4.48,4.53,56.19,56.19,0,0,0-4.34,6.08,68.57,68.57,0,0,0-3.8,7,64.17,64.17,0,0,0-2.91,7.28A43.63,43.63,0,0,1,268.37,25a30.76,30.76,0,0,1,3.43-3.78,15.7,15.7,0,0,1,3.36-2.43,6.75,6.75,0,0,1,3.11-.86,4.9,4.9,0,0,1,2.15,4.16,8.5,8.5,0,0,1-.63,3.15,12.27,12.27,0,0,1-1.69,2.94,11.91,11.91,0,0,1-2.41,2.3,7.24,7.24,0,0,1-2.81,1.24,26.51,26.51,0,0,0,1.25,3.48,24,24,0,0,0,1.81,3.43,20,20,0,0,0,2.4,3.09,13.19,13.19,0,0,0,3.06,2.4,3.66,3.66,0,0,1-.73,1,5.05,5.05,0,0,1-1.18.86,7.59,7.59,0,0,1-1.49.59,6.34,6.34,0,0,1-1.59.22,3.28,3.28,0,0,1-2.48-1.33,12.33,12.33,0,0,1-2.08-3.82,47.16,47.16,0,0,1-1.42-4.8C270,34.94,269.56,33,269.2,31a19.92,19.92,0,0,0,1.72-1.3c.68-.57,1.4-1.23,2.15-2q4.32-4.15,4.32-7.18,0-.39-.54-.39a4.36,4.36,0,0,0-2.31.88,16.83,16.83,0,0,0-2.81,2.45,36.8,36.8,0,0,0-3,3.68,52.77,52.77,0,0,0-3,4.56A14.42,14.42,0,0,0,264.65,34a25.09,25.09,0,0,0-.86,2.62,20,20,0,0,0-.56,2.68,15.61,15.61,0,0,0-.2,2.45,3.59,3.59,0,0,0,.15,1.13c-1-.1-1.64-.36-1.87-.79s-.48-.71-.66-.95a3.81,3.81,0,0,0-.56-.62,2.68,2.68,0,0,1-.74-1.47A11.76,11.76,0,0,1,259.06,36.16Z"/></g></g></g></svg>