<svg xmlns="http://www.w3.org/2000/svg" viewBox="0 0 109.65 33.79"><defs><style>.cls-1{fill:#f9a826;}</style></defs><g id="Layer_2" data-name="Layer 2"><g id="Layer_1-2" data-name="Layer 1"><path class="cls-1" d="M10.43,19.32a.74.74,0,0,1,.64-.75,13.78,13.78,0,0,1,1.6-.33,20.9,20.9,0,0,0,2.11-.46,5.38,5.38,0,0,0,2.12-1.15c1.49-1.29,2.24-3.44,2.24-6.47a5.31,5.31,0,0,0-2-4.44,8.9,8.9,0,0,0-5.63-1.54A15.69,15.69,0,0,0,4.66,5.72c-.79.38-1.5.73-2.13,1.06a3.88,3.88,0,0,1-1.74.48C.26,7.26,0,7.1,0,6.78A5.09,5.09,0,0,1,1.45,4.31a13.62,13.62,0,0,1,4.6-2.95A16.62,16.62,0,0,1,12.67,0q6.55,0,10.21,3.08a8.89,8.89,0,0,1,3.17,7.06,11.15,11.15,0,0,1-3.13,7.75,10.15,10.15,0,0,1-7.81,3.41Q10.43,21.3,10.43,19.32Z"/><path class="cls-1" d="M7.44,31.15q0,2.6-5.06,2.6a1.2,1.2,0,0,1-1.3-1.12,19.44,19.44,0,0,1-.2-3.15A41.34,41.34,0,0,1,2.6,18.92Q5.45,8.54,8.71,6.69a1.82,1.82,0,0,1,1-.27c.35,0,.53.58.53,1.72a22.81,22.81,0,0,1-.18,3Q9.69,13.82,8.78,18a41,41,0,0,0-.9,4.92Z"/><path class="cls-1" d="M43.38,29.35a10.56,10.56,0,0,1-8.33,4.09c-3.25,0-5.67-.83-7.29-2.49a8.34,8.34,0,0,1-2.37-6.18,13,13,0,0,1,3.3-9A11.13,11.13,0,0,1,37.44,12a10.55,10.55,0,0,1,4,.61c1.73.71,2.6,1.37,2.6,2s-1.21.72-3.63.73A8.25,8.25,0,0,0,34.3,17.8a8.58,8.58,0,0,0-2.44,6.27A4.85,4.85,0,0,0,33,27.39a4.13,4.13,0,0,0,3.3,1.34,6.54,6.54,0,0,0,3.54-.88,6.92,6.92,0,0,1-3.12-6.11,5.45,5.45,0,0,1,1.52-3.85,5.18,5.18,0,0,1,4-1.76,4.08,4.08,0,0,1,3.5,1.34A5.57,5.57,0,0,1,46.82,21a11.48,11.48,0,0,1-1,4.51h.27a4.9,4.9,0,0,0,3.34-1.37l.9-.92a1.06,1.06,0,0,1,.77-.4c.41,0,.62.49.62,1.45a5,5,0,0,1-1.58,4,5.28,5.28,0,0,1-3.5,1.34A17.38,17.38,0,0,1,43.38,29.35Z"/><path class="cls-1" d="M43,24.24a7.15,7.15,0,0,0,.75-3.08c0-1-.33-1.49-1-1.49q-.41,0-.66.57a2.58,2.58,0,0,0-.27,1.1A3.9,3.9,0,0,0,43,24.24Z"/><path class="cls-1" d="M55.92,25.7l.27,5.36a2.39,2.39,0,0,1-1.1,1.9,4.89,4.89,0,0,1-3,.83,1.53,1.53,0,0,1-1.52-1.14,10.22,10.22,0,0,1-.42-3.35,43.6,43.6,0,0,1,.46-7.23,19.06,19.06,0,0,1,1.83-5.31c-1.35-1.29-2-2.4-2-3.34,0-2,1.06-2.95,3.17-2.95a3.49,3.49,0,0,1,2.86,1.72A7.76,7.76,0,0,1,57.73,15a4.52,4.52,0,0,0,1.54.22,6.77,6.77,0,0,0,2.95-.84l1.14-.57a2.19,2.19,0,0,1,.92-.26q1.27,0,2.56,3.74c-.27,1.14-.55,2.24-.86,3.3s-.67,2.33-1.08,3.83a16.66,16.66,0,0,0-.64,3c0,.51.14.77.46.77a2.75,2.75,0,0,0,1.63-.84c.65-.55,1.29-1.16,1.94-1.82l1.78-1.83c.54-.55.92-.83,1.12-.83.41,0,.62.5.62,1.49a9,9,0,0,1-2.66,6,7.91,7.91,0,0,1-6.1,2.9,3.32,3.32,0,0,1-3-1.63,7.57,7.57,0,0,1-1.06-4A19.26,19.26,0,0,1,61,18.88a5.8,5.8,0,0,1-2.18.39,11.64,11.64,0,0,1-1.74-.09c-.26,1.12-.53,2.24-.79,3.37A14.15,14.15,0,0,0,55.92,25.7Z"/><path class="cls-1" d="M71.56,30.69A10.64,10.64,0,0,1,70.84,28a32.76,32.76,0,0,1-.22-4.38A37.24,37.24,0,0,1,71.68,16h-2c-.36,0-.53-.14-.53-.44a6.12,6.12,0,0,1,.2-1.74,4.49,4.49,0,0,1,.94-1.56h1.06c.41,0,.85,0,1.32,0C74.1,7.67,75.53,5.41,77,5.41q1.75,0,2.46,2.25c.12.41.25.85.4,1.32l-1.8,3.16c2,.06,3.35.09,3.89.09s.84,0,.88.16a1.26,1.26,0,0,1,.07.46,6.85,6.85,0,0,1-.38,2c-.25.79-.54,1.17-.86,1.14l-4.4-.22a54.9,54.9,0,0,0-.92,8.89c0,2.35.34,3.52,1,3.52a7.48,7.48,0,0,0,3-1.39,12.13,12.13,0,0,0,3.17-2.66c.64-.85,1.17-1.27,1.58-1.27s.61.5.61,1.49a5.48,5.48,0,0,1-1,3.06A13.23,13.23,0,0,1,82,30.25a14.56,14.56,0,0,1-3.57,2.13,8.85,8.85,0,0,1-3.41.84,3.27,3.27,0,0,1-2.22-.68A5.29,5.29,0,0,1,71.56,30.69Z"/><path class="cls-1" d="M101.33,29.35A10.6,10.6,0,0,1,93,33.44q-4.86,0-7.28-2.49a8.39,8.39,0,0,1-2.38-6.18,13,13,0,0,1,3.3-9A11.14,11.14,0,0,1,95.39,12a10.62,10.62,0,0,1,4,.61c1.73.71,2.6,1.37,2.6,2s-1.21.72-3.63.73a8.28,8.28,0,0,0-6.08,2.51,8.62,8.62,0,0,0-2.44,6.27A4.86,4.86,0,0,0,91,27.39a4.11,4.11,0,0,0,3.3,1.34,6.54,6.54,0,0,0,3.54-.88,6.92,6.92,0,0,1-3.12-6.11,5.44,5.44,0,0,1,1.51-3.85,5.2,5.2,0,0,1,4-1.76,4.1,4.1,0,0,1,3.5,1.34,5.56,5.56,0,0,1,1.05,3.5,11.63,11.63,0,0,1-1,4.51H104a4.9,4.9,0,0,0,3.35-1.37l.9-.92a1.06,1.06,0,0,1,.77-.4c.41,0,.62.49.62,1.45a5,5,0,0,1-1.59,4,5.24,5.24,0,0,1-3.5,1.34A17.34,17.34,0,0,1,101.33,29.35Z"/><path class="cls-1" d="M100.93,24.24a7.15,7.15,0,0,0,.75-3.08c0-1-.32-1.49-1-1.49q-.39,0-.66.57a2.71,2.71,0,0,0-.26,1.1A3.93,3.93,0,0,0,100.93,24.24Z"/></g></g></svg>