<svg xmlns="http://www.w3.org/2000/svg" viewBox="0 0 37.68 9.95"><defs><style>.cls-1{fill:#2f2e41;}</style></defs><title>Asset 1</title><g id="Layer_2" data-name="Layer 2"><g id="Calque_1" data-name="Calque 1"><path class="cls-1" d="M1.55,1.42H0V.11H4.83V1.42H3.32v8.4H1.55Z"/><path class="cls-1" d="M5.52,6.78V3.13c0-2,.72-3.13,2.81-3.13s2.79,1.16,2.79,3.13V6.78c0,2-.72,3.17-2.79,3.17S5.52,8.74,5.52,6.78Zm3.8.42V2.72c0-.81-.13-1.42-1-1.42s-1,.61-1,1.42V7.2c0,.8.13,1.45,1,1.45S9.32,8,9.32,7.2Z"/><path class="cls-1" d="M12.43.11h2.34c1.94,0,3.05.62,3.05,2.58,0,1.16-.29,2-1.2,2.35L18,9.82H16.2L15,5.37h-.84V9.82H12.43Zm2.33,4.16c1,0,1.39-.44,1.39-1.49s-.28-1.46-1.3-1.46h-.66V4.27Z"/><path class="cls-1" d="M19.16.11H20.4l2.36,5.54V.11h1.46V9.82H23.05L20.67,4v5.8H19.16Z"/><path class="cls-1" d="M25.55,6.78V3.13c0-2,.72-3.13,2.8-3.13s2.8,1.16,2.8,3.13V6.78c0,2-.72,3.17-2.8,3.17S25.55,8.74,25.55,6.78Zm3.8.42V2.72c0-.81-.13-1.42-1-1.42s-1,.61-1,1.42V7.2c0,.8.13,1.45,1,1.45S29.35,8,29.35,7.2Z"/><path class="cls-1" d="M33.84.11h1.89l2,9.71H36l-.38-2.24H34l-.4,2.24H31.9Zm1.62,6.34L34.8,2.38l-.66,4.07Z"/></g></g></svg>